<svg width="29" height="19" viewBox="0 0 29 19" fill="none" xmlns="http://www.w3.org/2000/svg">
<path fill-rule="evenodd" clip-rule="evenodd" d="M28.9378 9.4998C28.9378 9.22629 28.8292 8.96399 28.6358 8.77059C28.4424 8.5772 28.1801 8.46855 27.9066 8.46855L3.58349 8.46855L10.0742 1.97992C10.2678 1.78628 10.3766 1.52365 10.3766 1.2498C10.3766 0.975946 10.2678 0.713311 10.0742 0.51967C9.88054 0.32603 9.61791 0.217244 9.34406 0.217244C9.07021 0.217244 8.80757 0.32603 8.61393 0.51967L0.36393 8.76967C0.267893 8.86546 0.1917 8.97926 0.139712 9.10455C0.0877232 9.22984 0.0609631 9.36415 0.0609631 9.4998C0.0609631 9.63544 0.0877232 9.76975 0.139712 9.89504C0.1917 10.0203 0.267893 10.1341 0.36393 10.2299L8.61393 18.4799C8.80757 18.6736 9.07021 18.7823 9.34406 18.7823C9.6179 18.7823 9.88054 18.6736 10.0742 18.4799C10.2678 18.2863 10.3766 18.0236 10.3766 17.7498C10.3766 17.4759 10.2678 17.2133 10.0742 17.0197L3.58349 10.531L27.9066 10.531C28.1801 10.531 28.4424 10.4224 28.6358 10.229C28.8292 10.0356 28.9378 9.7733 28.9378 9.4998Z" fill="#005EFF"/>
</svg>
