<svg width="1em" height="1em" viewBox="0 0 75 75" fill="currentColor" xmlns="http://www.w3.org/2000/svg">
    <path
        d="M43.75 22.1667V28.5H40.625V47.5H43.75V53.8334H31.25V47.5H34.375V28.5H31.25V22.1667H43.75ZM37.5 6.33334C41.6038 6.33334 45.6674 7.15243 49.4589 8.74383C53.2503 10.3352 56.6953 12.6678 59.5971 15.6083C62.4989 18.5488 64.8008 22.0397 66.3712 25.8817C67.9417 29.7237 68.75 33.8415 68.75 38C68.75 46.3985 65.4576 54.4531 59.5971 60.3917C53.7366 66.3304 45.788 69.6667 37.5 69.6667C33.3962 69.6667 29.3326 68.8476 25.5411 67.2562C21.7497 65.6648 18.3047 63.3323 15.4029 60.3917C9.5424 54.4531 6.25 46.3985 6.25 38C6.25 29.6015 9.5424 21.547 15.4029 15.6083C21.2634 9.66964 29.212 6.33334 37.5 6.33334ZM37.5 12.6667C30.8696 12.6667 24.5107 15.3357 19.8223 20.0866C15.1339 24.8376 12.5 31.2812 12.5 38C12.5 44.7188 15.1339 51.1625 19.8223 55.9134C24.5107 60.6643 30.8696 63.3334 37.5 63.3334C44.1304 63.3334 50.4893 60.6643 55.1777 55.9134C59.8661 51.1625 62.5 44.7188 62.5 38C62.5 31.2812 59.8661 24.8376 55.1777 20.0866C50.4893 15.3357 44.1304 12.6667 37.5 12.6667Z" />
</svg>