<svg width="1em" height="1em" viewBox="0 0 60 60" fill="currentColor" xmlns="http://www.w3.org/2000/svg">
    <path
        d="M39.375 5.68298L38.145 7.03111C35.3906 10.063 33.12 11.4186 31.23 12.3055C29.34 13.1905 27.7519 13.4549 26.1919 14.6492C24.5287 15.9242 22.1119 18.3692 21.0937 22.7342C18.9112 23.2105 17.3137 24.0467 16.0537 25.1361C14.8087 26.2124 13.8712 27.4367 12.7162 28.7699C12.7069 28.7849 12.7219 28.813 12.7162 28.828C11.0587 30.733 9.60937 32.7842 6.79687 33.868L5.625 34.3367V54.3749H41.3681C43.4175 54.2642 44.8387 52.8449 45.7031 51.4442C46.5656 50.0455 47.0437 48.5305 47.2856 47.2855C47.9081 44.113 49.0425 34.9799 49.0425 34.9799L49.1025 34.8055V34.6292C49.0425 33.3617 48.5212 32.2855 47.8706 31.288L49.98 25.0199L53.3212 19.9799L54.2587 18.6317L53.0269 17.5199L40.7231 6.85486L39.375 5.68298ZM39.4931 10.8392L49.2769 19.3367L46.6987 23.143L46.5244 23.3211L46.4644 23.6136L44.7656 28.6517C43.8787 28.2861 42.9656 28.0292 41.9531 28.0667H41.835L30 28.1249H28.125V35.3905C27.8625 37.4342 26.7262 38.2255 25.3125 38.7899C24.8437 38.9792 24.7856 38.8761 24.375 38.9642V28.0686C24.0675 21.118 26.5425 19.1174 28.4775 17.638C29.0119 17.2274 30.5775 16.753 32.8125 15.7049C34.68 14.8255 37.0012 13.2505 39.4931 10.8411V10.8392ZM20.7431 26.953C20.7356 27.3786 20.6025 27.6786 20.625 28.1249V43.1249H22.5C22.5 43.1249 24.5062 43.1024 26.6606 42.2455C28.8131 41.3886 31.4137 39.3824 31.875 35.8592V31.8749L41.9531 31.8167H42.0112C42.8343 31.7717 43.6417 32.0546 44.2567 32.6035C44.8717 33.1524 45.2441 33.9226 45.2925 34.7455C45.285 34.7755 45.1987 35.4711 45.1762 35.6249H37.5V39.3749H44.7075C44.5087 40.8242 44.3269 41.7336 44.1206 43.1249H37.5V46.8749H43.5356C43.3141 47.782 42.9583 48.651 42.48 49.453C41.9681 50.2874 41.5275 50.6024 41.1337 50.6249H9.375V36.6205C12.4144 35.008 14.3044 32.6886 15.5269 31.2899C16.7944 29.8386 17.6644 28.7399 18.5156 28.0086C19.0725 27.5324 19.9444 27.2605 20.7431 26.953Z" />
</svg>