<svg width="1em" height="1em" viewBox="0 0 91 91" fill="currentColor" xmlns="http://www.w3.org/2000/svg">
    <path
        d="M66.4193 47.6062C66.3838 41.5454 69.1298 36.9776 74.6751 33.6096C71.5736 29.1662 66.8814 26.7224 60.6963 26.2514C54.8399 25.7893 48.4326 29.6639 46.0865 29.6639C43.6071 29.6639 37.9374 26.4113 33.4763 26.4113C24.2696 26.5535 14.4854 33.7518 14.4854 48.3971C14.4854 52.7249 15.2763 57.1949 16.8581 61.7982C18.9731 67.859 26.5979 82.7087 34.5516 82.4688C38.7105 82.371 41.652 79.5184 47.0641 79.5184C52.3161 79.5184 55.0354 82.4688 59.6743 82.4688C67.699 82.3532 74.5951 68.8543 76.6035 62.7758C65.8417 57.7015 66.4193 47.9172 66.4193 47.6062ZM57.0794 20.5017C61.585 15.1519 61.1762 10.2819 61.0429 8.53125C57.0616 8.7623 52.4583 11.2417 49.8367 14.2898C46.9485 17.5602 45.2512 21.6036 45.6155 26.1625C49.9167 26.4913 53.8446 24.2785 57.0794 20.5017Z" />
</svg>