<svg width="1em" height="1em" viewBox="0 0 76 76" fill="none" xmlns="http://www.w3.org/2000/svg">
    <circle cx="38" cy="38" r="38" fill="black" />
    <path
        d="M51.9826 37.9581C51.958 33.7622 53.8591 30.5999 57.6981 28.2682C55.551 25.192 52.3025 23.5001 48.0205 23.174C43.9661 22.8541 39.5303 25.5365 37.9061 25.5365C36.1895 25.5365 32.2644 23.2848 29.1759 23.2848C22.8021 23.3832 16.0283 28.3666 16.0283 38.5057C16.0283 41.5019 16.5759 44.5965 17.671 47.7834C19.1353 51.9793 24.414 62.2599 29.9203 62.0938C32.7996 62.0261 34.836 60.0512 38.5828 60.0512C42.2188 60.0512 44.1015 62.0938 47.313 62.0938C52.8686 62.0138 57.6428 52.6684 59.0332 48.4602C51.5827 44.9472 51.9826 38.1734 51.9826 37.9581ZM45.5165 19.1935C48.6357 15.4897 48.3527 12.1183 48.2605 10.9062C45.5042 11.0662 42.3173 12.7827 40.5023 14.893C38.5028 17.157 37.3277 19.9563 37.58 23.1125C40.5577 23.3401 43.2771 21.8082 45.5165 19.1935Z"
        fill="white" />
</svg>