<svg width="1em" height="1em" viewBox="0 0 58 58" fill="currentColor" xmlns="http://www.w3.org/2000/svg">
    <path
        d="M12.0833 31.4167H40.745L31.9725 41.9533C31.7694 42.1977 31.6164 42.4797 31.5223 42.7832C31.4281 43.0867 31.3947 43.4057 31.4239 43.7222C31.4828 44.3612 31.7931 44.9506 32.2867 45.3608C32.7802 45.771 33.4165 45.9684 34.0555 45.9095C34.6945 45.8506 35.284 45.5402 35.6942 45.0467L47.7775 30.5467C47.8588 30.4313 47.9315 30.3102 47.995 30.1842C47.995 30.0633 48.1158 29.9908 48.1642 29.87C48.2737 29.5929 48.3311 29.2979 48.3333 29C48.3311 28.7021 48.2737 28.4071 48.1642 28.13C48.1642 28.0092 48.0433 27.9367 47.995 27.8158C47.9315 27.6898 47.8588 27.5687 47.7775 27.4533L35.6942 12.9533C35.4669 12.6805 35.1824 12.4611 34.8608 12.3108C34.5392 12.1604 34.1884 12.0828 33.8333 12.0833C33.2687 12.0822 32.7215 12.2789 32.2867 12.6392C32.042 12.842 31.8397 13.0912 31.6914 13.3724C31.5431 13.6535 31.4518 13.9612 31.4226 14.2777C31.3934 14.5943 31.427 14.9134 31.5213 15.217C31.6157 15.5205 31.769 15.8025 31.9725 16.0467L40.745 26.5833H12.0833C11.4424 26.5833 10.8277 26.8379 10.3745 27.2912C9.92128 27.7444 9.66667 28.3591 9.66667 29C9.66667 29.6409 9.92128 30.2556 10.3745 30.7088C10.8277 31.1621 11.4424 31.4167 12.0833 31.4167Z" />
</svg>