<svg width="1em" height="auto" viewBox="0 0 55 39" fill="currentColor" xmlns="http://www.w3.org/2000/svg">
    <path
        d="M54.5311 10.9596C55.0611 10.4296 55.0611 9.57035 54.5311 9.04036L45.8943 0.403551C45.3643 -0.126446 44.505 -0.126446 43.975 0.403551C43.445 0.933548 43.445 1.79284 43.975 2.32284L51.6521 10L43.975 17.6772C43.445 18.2072 43.445 19.0665 43.975 19.5964C44.505 20.1264 45.3643 20.1264 45.8943 19.5964L54.5311 10.9596ZM2 11.3571H53.5714V8.64286H2V11.3571Z" />
    <path
        d="M1.04034 29.9596C0.510338 29.4296 0.510338 28.5704 1.04034 28.0404L9.67714 19.4036C10.2071 18.8736 11.0664 18.8736 11.5964 19.4036C12.1264 19.9335 12.1264 20.7928 11.5964 21.3228L3.91927 29L11.5964 36.6772C12.1264 37.2072 12.1264 38.0665 11.5964 38.5964C11.0664 39.1264 10.2071 39.1264 9.67714 38.5964L1.04034 29.9596ZM53.5714 30.3571H1.99998V27.6429H53.5714V30.3571Z" />
</svg>