<svg width="1em" height="1em" viewBox="0 0 59 59" fill="currentColor" xmlns="http://www.w3.org/2000/svg">
    <path
        d="M29.6547 0.557957C22.1059 0.409977 14.8074 3.26682 9.36497 8.50001C3.9225 13.7332 0.781821 20.9141 0.63384 28.4629C0.48586 36.0117 3.3427 43.3102 8.57589 48.7526C13.8091 54.1951 20.99 57.3358 28.5388 57.4838C36.0876 57.6318 43.3861 54.7749 48.8285 49.5417C54.271 44.3085 57.4117 37.1277 57.5597 29.5788C57.7076 22.03 54.8508 14.7316 49.6176 9.28909C44.3844 3.84662 37.2035 0.705938 29.6547 0.557957ZM41.5841 27.486C42.0559 27.4953 42.5047 27.6916 42.8318 28.0317C43.1589 28.3719 43.3375 28.828 43.3282 29.2998C43.319 29.7716 43.1227 30.2205 42.7825 30.5475C42.4424 30.8746 41.9862 31.0532 41.5144 31.0439L20.9037 30.6399L28.3928 38.4248C28.7202 38.7654 28.899 39.2221 28.8898 39.6945C28.8805 40.1669 28.684 40.6163 28.3434 40.9438C28.0028 41.2712 27.5461 41.45 27.0737 41.4408C26.6013 41.4315 26.1519 41.235 25.8244 40.8944L15.3601 30.0116C15.1976 29.8431 15.07 29.6442 14.9846 29.4263C14.8991 29.2084 14.8575 28.9758 14.8621 28.7418C14.8667 28.5078 14.9174 28.277 15.0113 28.0627C15.1052 27.8483 15.2405 27.6546 15.4094 27.4926L26.2923 17.0282C26.6328 16.7007 27.0896 16.522 27.562 16.5312C28.0344 16.5405 28.4837 16.737 28.8112 17.0776C29.1387 17.4182 29.3175 17.8749 29.3082 18.3473C29.299 18.8197 29.1024 19.2691 28.7618 19.5966L20.9734 27.082L41.5841 27.486Z" />
</svg>