<svg width="1em" height="1em" viewBox="0 0 59 59" fill="currentColor" xmlns="http://www.w3.org/2000/svg">
    <path
        d="M28.4629 0.557957C36.0117 0.409977 43.3102 3.26682 48.7526 8.50001C54.1951 13.7332 57.3358 20.9141 57.4838 28.4629C57.6318 36.0117 54.7749 43.3102 49.5417 48.7526C44.3085 54.1951 37.1277 57.3358 29.5788 57.4838C22.03 57.6318 14.7316 54.7749 9.28909 49.5417C3.84662 44.3085 0.705942 37.1277 0.557962 29.5788C0.409981 22.03 3.26682 14.7316 8.50002 9.28909C13.7332 3.84662 20.9141 0.705938 28.4629 0.557957ZM16.5335 27.486C16.0617 27.4953 15.6129 27.6916 15.2858 28.0317C14.9587 28.3719 14.7802 28.828 14.7894 29.2998C14.7987 29.7716 14.995 30.2205 15.3351 30.5475C15.6753 30.8746 16.1314 31.0532 16.6032 31.0439L37.2139 30.6399L29.7249 38.4248C29.3974 38.7654 29.2186 39.2221 29.2279 39.6945C29.2371 40.1669 29.4337 40.6163 29.7742 40.9438C30.1148 41.2712 30.5716 41.45 31.044 41.4408C31.5164 41.4315 31.9657 41.235 32.2932 40.8944L42.7576 30.0116C42.92 29.8431 43.0476 29.6442 43.133 29.4263C43.2185 29.2084 43.2601 28.9758 43.2555 28.7418C43.2509 28.5078 43.2002 28.277 43.1063 28.0627C43.0124 27.8483 42.8771 27.6546 42.7082 27.4926L31.8254 17.0282C31.4848 16.7007 31.028 16.522 30.5556 16.5312C30.0833 16.5405 29.6339 16.737 29.3064 17.0776C28.9789 17.4182 28.8001 17.8749 28.8094 18.3473C28.8186 18.8197 29.0152 19.2691 29.3558 19.5966L37.1442 27.082L16.5335 27.486Z" />
</svg>