<svg width="1em" height="1em" viewBox="0 0 58 58" fill="currentColor" xmlns="http://www.w3.org/2000/svg">
    <path
        d="M45.9167 31.4167H17.255L26.0275 41.9533C26.2306 42.1977 26.3836 42.4797 26.4777 42.7832C26.5719 43.0867 26.6053 43.4057 26.5761 43.7222C26.5172 44.3612 26.2069 44.9506 25.7133 45.3608C25.2198 45.771 24.5835 45.9684 23.9445 45.9095C23.3055 45.8506 22.716 45.5402 22.3058 45.0467L10.2225 30.5467C10.1412 30.4313 10.0685 30.3102 10.005 30.1842C10.005 30.0633 9.88416 29.9908 9.83583 29.87C9.72629 29.5929 9.66894 29.2979 9.66666 29C9.66894 28.7021 9.72629 28.4071 9.83583 28.13C9.83583 28.0092 9.95666 27.9367 10.005 27.8158C10.0685 27.6898 10.1412 27.5687 10.2225 27.4533L22.3058 12.9533C22.5331 12.6805 22.8176 12.4611 23.1392 12.3108C23.4608 12.1604 23.8116 12.0828 24.1667 12.0833C24.7313 12.0822 25.2785 12.2789 25.7133 12.6392C25.958 12.842 26.1603 13.0912 26.3086 13.3724C26.4569 13.6535 26.5482 13.9612 26.5774 14.2777C26.6066 14.5943 26.573 14.9134 26.4787 15.217C26.3843 15.5205 26.231 15.8025 26.0275 16.0467L17.255 26.5833H45.9167C46.5576 26.5833 47.1723 26.8379 47.6255 27.2912C48.0787 27.7444 48.3333 28.3591 48.3333 29C48.3333 29.6409 48.0787 30.2556 47.6255 30.7088C47.1723 31.1621 46.5576 31.4167 45.9167 31.4167Z" />
</svg>