<svg width="1em" height="1em" viewBox="0 0 48 48" fill="currentColor" xmlns="http://www.w3.org/2000/svg">
    <g clip-path="url(#clip0_100_18463)">
        <path
            d="M24 48C25.5913 48 27.1174 47.3679 28.2426 46.2427C29.3679 45.1175 30 43.5913 30 42H18C18 43.5913 18.6321 45.1175 19.7574 46.2427C20.8826 47.3679 22.4087 48 24 48ZM24 5.75405L21.609 6.23705C18.8969 6.78965 16.459 8.26236 14.708 10.4059C12.9569 12.5495 12.0003 15.2322 12 18C12 19.884 11.598 24.591 10.623 29.226C10.143 31.527 9.495 33.924 8.634 36H39.366C38.505 33.924 37.86 31.53 37.377 29.226C36.402 24.591 36 19.884 36 18C35.999 15.2327 35.0421 12.5507 33.2911 10.4078C31.5401 8.26481 29.1026 6.79254 26.391 6.24005L24 5.75105V5.75405ZM42.66 36C43.329 37.341 44.103 38.403 45 39H3C3.897 38.403 4.671 37.341 5.34 36C8.04 30.6 9 20.64 9 18C9 10.74 14.16 4.68005 21.015 3.29705C20.9731 2.87991 21.0192 2.45862 21.1501 2.06037C21.281 1.66211 21.494 1.29572 21.7753 0.98482C22.0565 0.673925 22.3998 0.42543 22.783 0.25536C23.1662 0.0852897 23.5808 -0.00257874 24 -0.00257874C24.4192 -0.00257874 24.8338 0.0852897 25.217 0.25536C25.6002 0.42543 25.9435 0.673925 26.2247 0.98482C26.506 1.29572 26.719 1.66211 26.8499 2.06037C26.9808 2.45862 27.0269 2.87991 26.985 3.29705C30.3758 3.98675 33.4241 5.82713 35.6137 8.50655C37.8033 11.186 38.9996 14.5398 39 18C39 20.64 39.96 30.6 42.66 36Z" />
    </g>
    <defs>
        <clipPath id="clip0_100_18463">
            <rect width="48" height="48" fill="white" />
        </clipPath>
    </defs>
</svg>