<svg width="1em" height="1em" viewBox="0 0 63 63" fill="currentColor" xmlns="http://www.w3.org/2000/svg">
    <path
        d="M31.5 57.75C34.3875 57.75 36.75 55.3875 36.75 52.5H26.25C26.25 55.3875 28.6125 57.75 31.5 57.75ZM47.25 42V28.875C47.25 20.8163 42.9713 14.07 35.4375 12.285V10.5C35.4375 8.32128 33.6788 6.56253 31.5 6.56253C29.3213 6.56253 27.5625 8.32128 27.5625 10.5V12.285C20.055 14.07 15.75 20.79 15.75 28.875V42L10.5 47.25V49.875H52.5V47.25L47.25 42ZM42 44.625H21V28.875C21 22.365 24.9638 17.0625 31.5 17.0625C38.0363 17.0625 42 22.365 42 28.875V44.625ZM19.8975 10.71L16.1438 6.95628C9.8438 11.76 5.6963 19.1625 5.3288 27.5625H10.5788C10.7647 24.2335 11.6992 20.9894 13.3127 18.0715C14.9261 15.1537 17.1769 12.6374 19.8975 10.71ZM52.4213 27.5625H57.6713C57.2775 19.1625 53.13 11.76 46.8563 6.95628L43.1288 10.71C45.8378 12.6469 48.0786 15.166 49.6866 18.0822C51.2946 20.9985 52.2291 24.2379 52.4213 27.5625Z" />
</svg>