<svg width="1em" height="1em" viewBox="0 0 48 48" fill="currentColor" xmlns="http://www.w3.org/2000/svg">
    <g clip-path="url(#clip0_100_18462)">
        <path
            d="M24 48C25.5913 48 27.1174 47.3678 28.2426 46.2426C29.3679 45.1174 30 43.5913 30 42H18C18 43.5913 18.6321 45.1174 19.7574 46.2426C20.8826 47.3678 22.4087 48 24 48ZM26.985 3.29698C27.0269 2.87985 26.9808 2.45856 26.8499 2.0603C26.719 1.66205 26.506 1.29565 26.2247 0.984759C25.9435 0.673864 25.6002 0.425369 25.217 0.255299C24.8338 0.0852287 24.4192 -0.00263977 24 -0.00263977C23.5808 -0.00263977 23.1662 0.0852287 22.783 0.255299C22.3998 0.425369 22.0565 0.673864 21.7753 0.984759C21.494 1.29565 21.281 1.66205 21.1501 2.0603C21.0192 2.45856 20.9731 2.87985 21.015 3.29698C17.6242 3.98669 14.5759 5.82707 12.3863 8.50649C10.1967 11.1859 9.00044 14.5397 9 18C9 21.294 7.5 36 3 39H45C40.5 36 39 21.294 39 18C39 10.74 33.84 4.67998 26.985 3.29698Z" />
    </g>
    <defs>
        <clipPath id="clip0_100_18462">
            <rect width="48" height="48" fill="white" />
        </clipPath>
    </defs>
</svg>