<svg width="1em" height="1em" viewBox="0 0 55 55" fill="currentColor" xmlns="http://www.w3.org/2000/svg">
    <path
        d="M48.1669 33.3797C50.1321 30.2979 51.173 26.7176 51.1667 23.0625C51.1667 12.4421 42.5579 3.83336 31.9375 3.83336C28.1405 3.83336 24.6008 4.93386 21.6203 6.83163C19.6367 6.94289 17.6734 7.28948 15.7717 7.86409C17.2172 6.32732 18.8737 5.00357 20.6914 3.93247C24.0771 1.93746 27.9338 0.882004 31.8635 0.875031H31.9375C44.1909 0.875031 54.125 10.8091 54.125 23.0625C54.125 23.2622 54.122 23.4604 54.1176 23.6586L54.1146 23.7296C54.0089 27.4567 52.9605 31.0963 51.0676 34.3086C49.9965 36.1264 48.6728 37.7828 47.1359 39.2283C47.6995 37.3602 48.053 35.4017 48.1669 33.3797Z" />
    <path fill-rule="evenodd" clip-rule="evenodd"
        d="M30.1211 25.5283C29.7131 24.3746 28.9574 23.3757 27.9582 22.6693C26.959 21.9628 25.7654 21.5834 24.5417 21.5834V20.1042H21.5833V21.5834C20.0141 21.5834 18.5092 22.2067 17.3996 23.3163C16.29 24.4259 15.6667 25.9309 15.6667 27.5001C15.6667 29.0693 16.29 30.5742 17.3996 31.6838C18.5092 32.7934 20.0141 33.4167 21.5833 33.4167V39.3334C20.2964 39.3334 19.2004 38.5124 18.7921 37.3617C18.7316 37.1734 18.6339 36.9992 18.5048 36.8493C18.3757 36.6995 18.2179 36.577 18.0407 36.4892C17.8634 36.4014 17.6704 36.3501 17.473 36.3382C17.2756 36.3263 17.0778 36.3541 16.8913 36.42C16.7048 36.4859 16.5334 36.5885 16.3873 36.7218C16.2412 36.855 16.1232 37.0163 16.0405 37.1959C15.9578 37.3755 15.9119 37.57 15.9056 37.7676C15.8993 37.9653 15.9328 38.1622 16.0039 38.3468C16.4119 39.5005 17.1675 40.4994 18.1667 41.2058C19.1659 41.9123 20.3596 42.2917 21.5833 42.2917V43.7709H24.5417V42.2917C26.1109 42.2917 27.6158 41.6684 28.7254 40.5588C29.835 39.4492 30.4583 37.9443 30.4583 36.3751C30.4583 34.8059 29.835 33.3009 28.7254 32.1913C27.6158 31.0817 26.1109 30.4584 24.5417 30.4584V24.5417C25.8285 24.5417 26.9246 25.3627 27.3328 26.5134C27.3934 26.7017 27.4911 26.8759 27.6202 27.0258C27.7493 27.1756 27.9071 27.2981 28.0843 27.3859C28.2615 27.4737 28.4546 27.525 28.652 27.5369C28.8494 27.5488 29.0472 27.521 29.2337 27.4551C29.4202 27.3892 29.5916 27.2866 29.7377 27.1533C29.8838 27.0201 30.0017 26.8588 30.0845 26.6792C30.1672 26.4996 30.2131 26.3051 30.2194 26.1075C30.2256 25.9098 30.1922 25.7129 30.1211 25.5283ZM21.5833 24.5417C20.7987 24.5417 20.0463 24.8534 19.4915 25.4082C18.9367 25.963 18.625 26.7155 18.625 27.5001C18.625 28.2847 18.9367 29.0371 19.4915 29.5919C20.0463 30.1467 20.7987 30.4584 21.5833 30.4584V24.5417ZM24.5417 39.3334C25.3263 39.3334 26.0787 39.0217 26.6335 38.4669C27.1883 37.9121 27.5 37.1597 27.5 36.3751C27.5 35.5905 27.1883 34.838 26.6335 34.2832C26.0787 33.7284 25.3263 33.4167 24.5417 33.4167V39.3334Z" />
    <path fill-rule="evenodd" clip-rule="evenodd"
        d="M45.25 31.9376C45.25 44.191 35.3159 54.1251 23.0625 54.1251C10.8091 54.1251 0.875 44.191 0.875 31.9376C0.875 19.6841 10.8091 9.75006 23.0625 9.75006C35.3159 9.75006 45.25 19.6841 45.25 31.9376ZM42.2917 31.9376C42.2917 42.558 33.6829 51.1667 23.0625 51.1667C12.4421 51.1667 3.83333 42.558 3.83333 31.9376C3.83333 21.3171 12.4421 12.7084 23.0625 12.7084C33.6829 12.7084 42.2917 21.3171 42.2917 31.9376Z" />
</svg>