<svg width="1em" height="1em" viewBox="0 0 89 89" fill="currentColor" xmlns="http://www.w3.org/2000/svg">
    <path
        d="M32.3146 44.5C32.3146 51.2358 37.7642 56.6854 44.5 56.6854C51.2358 56.6854 56.6853 51.2358 56.6853 44.5C56.6853 37.7642 51.2358 32.3147 44.5 32.3147C37.7642 32.3147 32.3146 37.7555 32.3146 44.5ZM78.2227 31.4977L57.8587 32.5493C63.3864 39.007 63.4733 48.3242 58.8234 55.4686L42.4836 80.6041C49.2629 80.9691 56.2508 79.4829 62.5781 75.8064C78.2227 66.7674 84.5674 47.8114 78.2227 31.4977ZM27.8386 51.4444L14.2365 24.6923C10.384 30.5795 8.3358 37.4643 8.34374 44.5C8.34374 62.5781 21.5808 77.5534 38.8853 80.2043L48.1765 62.0045C39.7806 63.5863 31.6715 58.9799 27.8386 51.4444ZM46.8293 26.6305L76.7625 28.2036C73.7031 22.137 68.8881 16.8613 62.5607 13.1849C56.8331 9.87344 50.5405 8.3003 44.3696 8.34376C33.7227 8.38721 23.319 13.1414 16.3746 21.772L27.517 38.8854C30.2982 30.898 38.3639 26.1351 46.8293 26.6305Z" />
</svg>