<svg width="1em" height="1em" viewBox="0 0 57 57" fill="currentColor" xmlns="http://www.w3.org/2000/svg">
    <g clip-path="url(#clip0_100_18233)">
        <path
            d="M34.623 57H13.3594C8.44833 57 4.45312 53.0048 4.45312 48.0938V17.9238C4.45312 13.0128 8.44833 9.01758 13.3594 9.01758H34.623C39.5341 9.01758 43.5293 13.0128 43.5293 17.9238V48.0938C43.5293 53.0048 39.5341 57 34.623 57ZM13.3594 13.4707C10.9041 13.4707 8.90625 15.4685 8.90625 17.9238V48.0938C8.90625 50.5491 10.9041 52.5469 13.3594 52.5469H34.623C37.0784 52.5469 39.0762 50.5491 39.0762 48.0938V17.9238C39.0762 15.4685 37.0784 13.4707 34.623 13.4707H13.3594ZM52.4355 42.5273V8.90625C52.4355 3.9952 48.4403 0 43.5293 0H18.8145C17.5846 0 16.5879 0.996735 16.5879 2.22656C16.5879 3.45639 17.5846 4.45312 18.8145 4.45312H43.5293C45.9846 4.45312 47.9824 6.45094 47.9824 8.90625V42.5273C47.9824 43.7572 48.9792 44.7539 50.209 44.7539C51.4388 44.7539 52.4355 43.7572 52.4355 42.5273Z" />
    </g>
    <defs>
        <clipPath id="clip0_100_18233">
            <rect width="57" height="57" fill="white" />
        </clipPath>
    </defs>
</svg>