<svg width="1em" height="auto" viewBox="0 0 65 56" fill="currentColor" xmlns="http://www.w3.org/2000/svg">
    <path
        d="M0 14C0 12.1435 0.856024 10.363 2.37976 9.05025C3.90349 7.7375 5.97012 7 8.125 7H56.875C59.0299 7 61.0965 7.7375 62.6202 9.05025C64.144 10.363 65 12.1435 65 14V42C65 43.8565 64.144 45.637 62.6202 46.9497C61.0965 48.2625 59.0299 49 56.875 49H8.125C5.97012 49 3.90349 48.2625 2.37976 46.9497C0.856024 45.637 0 43.8565 0 42V14ZM8.125 10.5C7.04756 10.5 6.01425 10.8687 5.25238 11.5251C4.49051 12.1815 4.0625 13.0717 4.0625 14V17.5H60.9375V14C60.9375 13.0717 60.5095 12.1815 59.7476 11.5251C58.9858 10.8687 57.9524 10.5 56.875 10.5H8.125ZM60.9375 24.5H4.0625V42C4.0625 42.9283 4.49051 43.8185 5.25238 44.4749C6.01425 45.1312 7.04756 45.5 8.125 45.5H56.875C57.9524 45.5 58.9858 45.1312 59.7476 44.4749C60.5095 43.8185 60.9375 42.9283 60.9375 42V24.5Z" />
    <path
        d="M8.125 35C8.125 34.0717 8.55301 33.1815 9.31488 32.5251C10.0767 31.8687 11.1101 31.5 12.1875 31.5H16.25C17.3274 31.5 18.3608 31.8687 19.1226 32.5251C19.8845 33.1815 20.3125 34.0717 20.3125 35V38.5C20.3125 39.4283 19.8845 40.3185 19.1226 40.9749C18.3608 41.6313 17.3274 42 16.25 42H12.1875C11.1101 42 10.0767 41.6313 9.31488 40.9749C8.55301 40.3185 8.125 39.4283 8.125 38.5V35Z" />
</svg>