<svg width="1em" height="1em" viewBox="0 0 45 45" fill="currentColor" xmlns="http://www.w3.org/2000/svg">
    <path
        d="M7.91995 3.81L22.5 18.39L37.02 3.87C37.2744 3.59915 37.581 3.38248 37.9212 3.23299C38.2614 3.08349 38.6283 3.00424 39 3C39.7956 3 40.5587 3.31607 41.1213 3.87868C41.6839 4.44129 42 5.20435 42 6C42.007 6.36781 41.9387 6.73316 41.7994 7.07364C41.6601 7.41413 41.4527 7.72256 41.19 7.98L26.52 22.5L41.19 37.17C41.6844 37.6537 41.9743 38.3088 42 39C42 39.7957 41.6839 40.5587 41.1213 41.1213C40.5587 41.6839 39.7956 42 39 42C38.6176 42.0159 38.2362 41.952 37.8798 41.8126C37.5235 41.6732 37.2 41.4611 36.93 41.19L22.5 26.61L7.94995 41.16C7.69647 41.4218 7.39365 41.6308 7.05896 41.775C6.72427 41.9192 6.36435 41.9957 5.99995 42C5.2043 42 4.44124 41.6839 3.87863 41.1213C3.31602 40.5587 2.99995 39.7957 2.99995 39C2.99296 38.6322 3.0612 38.2668 3.20049 37.9264C3.33978 37.5859 3.54718 37.2774 3.80995 37.02L18.48 22.5L3.80995 7.83C3.31551 7.34628 3.02557 6.69124 2.99995 6C2.99995 5.20435 3.31602 4.44129 3.87863 3.87868C4.44124 3.31607 5.2043 3 5.99995 3C6.71995 3.009 7.40995 3.3 7.91995 3.81Z" />
</svg>