<svg width="1em" height="auto" viewBox="0 0 41 45" fill="currentColor" xmlns="http://www.w3.org/2000/svg">
    <path
        d="M20.5003 1.55004e-08C22.34 -0.000120771 24.1101 0.705676 25.4474 1.9726C26.7847 3.23953 27.5878 4.97154 27.692 6.81333L27.703 7.22222H39.3383C39.7595 7.22235 40.1649 7.38277 40.4726 7.67105C40.7803 7.95934 40.9674 8.354 40.9961 8.77529C41.0248 9.19658 40.893 9.61309 40.6272 9.94067C40.3615 10.2682 39.9816 10.4824 39.5644 10.54L39.3383 10.5556H37.5742L34.7374 39.4889C34.5953 40.9313 33.9464 42.2762 32.9067 43.2833C31.8671 44.2903 30.5042 44.8941 29.0616 44.9867L28.6715 45H12.329C10.8828 45 9.48373 44.4843 8.38185 43.5451C7.27996 42.6059 6.54705 41.3045 6.31408 39.8733L6.26311 39.4867L3.4241 10.5556H1.66218C1.26052 10.5555 0.872442 10.4097 0.569728 10.145C0.267015 9.88024 0.0701403 9.51456 0.0155136 9.11556L0 8.88889C1.69385e-05 8.48614 0.14548 8.09702 0.409489 7.79349C0.673497 7.48996 1.03819 7.29255 1.43613 7.23778L1.66218 7.22222H13.2975C13.2975 5.30677 14.0563 3.46977 15.4071 2.11534C16.7579 0.76091 18.59 1.55004e-08 20.5003 1.55004e-08ZM34.2343 10.5556H6.76398L9.57196 39.16C9.63413 39.7983 9.91464 40.3953 10.3659 40.8497C10.8171 41.3042 11.4113 41.5881 12.0475 41.6533L12.329 41.6667H28.6715C30.0013 41.6667 31.1294 40.7222 31.3864 39.44L31.4308 39.16L34.2321 10.5556H34.2343ZM24.3787 16.6667C24.7803 16.6667 25.1684 16.8125 25.4711 17.0773C25.7738 17.342 25.9707 17.7077 26.0254 18.1067L26.0409 18.3333V33.8889C26.0407 34.3112 25.8808 34.7176 25.5932 35.0262C25.3057 35.3348 24.9121 35.5224 24.492 35.5512C24.0718 35.58 23.6564 35.4477 23.3297 35.1813C23.003 34.9148 22.7894 34.5339 22.732 34.1156L22.7165 33.8889V18.3333C22.7165 17.8913 22.8916 17.4674 23.2033 17.1548C23.5151 16.8423 23.9378 16.6667 24.3787 16.6667ZM16.6218 16.6667C17.0235 16.6667 17.4116 16.8125 17.7143 17.0773C18.017 17.342 18.2139 17.7077 18.2685 18.1067L18.284 18.3333V33.8889C18.2839 34.3112 18.1239 34.7176 17.8364 35.0262C17.5489 35.3348 17.1553 35.5224 16.7351 35.5512C16.315 35.58 15.8996 35.4477 15.5729 35.1813C15.2462 34.9148 15.0326 34.5339 14.9752 34.1156L14.9596 33.8889V18.3333C14.9596 17.8913 15.1348 17.4674 15.4465 17.1548C15.7582 16.8423 16.181 16.6667 16.6218 16.6667ZM20.5003 3.33333C19.5269 3.33337 18.5891 3.70038 17.8731 4.36151C17.1571 5.02264 16.7152 5.92955 16.6351 6.90222L16.6218 7.22222H24.3787C24.3787 6.19082 23.9701 5.20167 23.2427 4.47236C22.5154 3.74305 21.5289 3.33333 20.5003 3.33333Z" />
</svg>