<svg width="1em" height="1em" viewBox="0 0 84 84" fill="currentColor" xmlns="http://www.w3.org/2000/svg">
    <path
        d="M67.9 25.6899L58.31 16.0999C57.0584 14.9243 55.4183 14.2497 53.7017 14.2045C51.9851 14.1593 50.3117 14.7467 49 15.8549L17.5 47.3549C16.3687 48.4958 15.6643 49.9911 15.505 51.5899L14 66.1849C13.9528 66.6976 14.0194 67.2143 14.1948 67.6983C14.3703 68.1823 14.6503 68.6216 15.015 68.9849C15.342 69.3093 15.7299 69.566 16.1563 69.7401C16.5828 69.9143 17.0394 70.0026 17.5 69.9999H17.815L32.41 68.6699C34.0088 68.5107 35.5041 67.8062 36.645 66.6749L68.145 35.1749C69.3676 33.8833 70.0283 32.1597 69.9824 30.3818C69.9365 28.6039 69.1877 26.9167 67.9 25.6899ZM56 37.3799L46.62 27.9999L53.445 20.9999L63 30.5549L56 37.3799Z" />
</svg>