<svg width="1em" height="1em" viewBox="0 0 69 69" fill="currentColor" xmlns="http://www.w3.org/2000/svg">
    <path
        d="M14.355 37.6984C13.7304 37.6978 13.1227 37.9005 12.6236 38.276C12.1246 38.6514 11.7614 39.1792 11.5889 39.7794C11.4164 40.3796 11.4441 41.0197 11.6677 41.6028C11.8913 42.1859 12.2987 42.6804 12.8283 43.0114L20.5563 50.7394C20.8235 51.0063 21.1405 51.218 21.4895 51.3624C21.8384 51.5068 22.2124 51.581 22.59 51.5809C22.9676 51.5808 23.3415 51.5063 23.6903 51.3616C24.0392 51.217 24.3561 51.0051 24.623 50.7379C24.89 50.4708 25.1017 50.1537 25.246 49.8048C25.3904 49.4559 25.4647 49.0819 25.4646 48.7043C25.4644 48.3267 25.3899 47.9528 25.2453 47.6039C25.1006 47.2551 24.8887 46.9382 24.6216 46.6713L21.3987 43.4513H43.105C43.8675 43.4513 44.5987 43.1484 45.1379 42.6092C45.6771 42.07 45.98 41.3388 45.98 40.5763C45.98 39.8138 45.6771 39.0825 45.1379 38.5433C44.5987 38.0042 43.8675 37.7013 43.105 37.7013H14.355V37.6984Z" />
    <path
        d="M54.6452 32.0405C55.2697 32.0411 55.8775 31.8384 56.3766 31.4629C56.8756 31.0874 57.2388 30.5597 57.4113 29.9594C57.5838 29.3592 57.5561 28.7191 57.3325 28.136C57.1089 27.5529 56.7015 27.0585 56.1719 26.7275L48.4439 18.9995C47.9044 18.4604 47.1729 18.1577 46.4102 18.158C45.6476 18.1582 44.9163 18.4615 44.3772 19.0009C43.8381 19.5404 43.5354 20.2719 43.5356 21.0346C43.5359 21.7972 43.8391 22.5285 44.3786 23.0676L47.6015 26.2876H25.8952C25.1327 26.2876 24.4015 26.5905 23.8623 27.1297C23.3231 27.6688 23.0202 28.4001 23.0202 29.1626C23.0202 29.9251 23.3231 30.6564 23.8623 31.1955C24.4015 31.7347 25.1327 32.0376 25.8952 32.0376H54.6452V32.0405Z" />
</svg>