<svg width="1em" height="auto" viewBox="0 0 54 35" fill="currentColor" xmlns="http://www.w3.org/2000/svg">
    <path
        d="M53.5634 16.7064C47.9049 6.29833 37.9813 0 27 0C16.0187 0 6.07836 6.29833 0.470149 16.7064L0 17.4916L0.436567 18.2936C6.09515 28.7017 16.0187 35 27 35C37.9813 35 47.9216 28.7852 53.5634 18.2936L54 17.4916L53.5634 16.7064ZM27 31.5752C17.5466 31.5752 8.86567 26.3294 3.82836 17.4916C8.86567 8.65394 17.5466 3.40811 27 3.40811C36.4534 3.40811 45.0336 8.67064 50.1549 17.4916C45.0336 26.3294 36.4366 31.5752 27 31.5752Z" />
    <path
        d="M27.4866 6.08115C25.2099 6.09768 22.9892 6.78512 21.105 8.05665C19.2208 9.32818 17.7576 11.1268 16.9001 13.2252C16.0427 15.3237 15.8295 17.6279 16.2875 19.8469C16.7454 22.0658 17.8541 24.1 19.4733 25.6924C21.0925 27.2848 23.1498 28.3641 25.3851 28.7939C27.6205 29.2237 29.9337 28.9848 32.0327 28.1073C34.1317 27.2298 35.9222 25.753 37.1781 23.8636C38.4341 21.9742 39.0991 19.7569 39.0892 17.4916C39.0826 15.9838 38.777 14.492 38.19 13.1019C37.6029 11.7117 36.7459 10.4505 35.668 9.39053C34.5902 8.33053 33.3127 7.49257 31.9088 6.92468C30.5048 6.3568 29.0021 6.07014 27.4866 6.08115ZM27.4866 25.6611C25.8784 25.6446 24.311 25.1557 22.9812 24.2558C21.6515 23.3559 20.6186 22.085 20.0123 20.603C19.406 19.1209 19.2534 17.4936 19.5737 15.9255C19.8939 14.3574 20.6727 12.9184 21.8122 11.7893C22.9517 10.6601 24.4012 9.89113 25.9785 9.57892C27.5558 9.26671 29.1907 9.42518 30.6778 10.0344C32.1649 10.6437 33.4379 11.6765 34.337 13.0033C35.236 14.3301 35.721 15.8915 35.731 17.4916C35.7355 18.5685 35.525 19.6356 35.1119 20.631C34.6987 21.6263 34.0911 22.5302 33.3242 23.2901C32.5573 24.05 31.6464 24.6509 30.6443 25.0579C29.6422 25.4649 28.5689 25.67 27.4866 25.6611Z" />
</svg>