<svg width="1em" height="1em" viewBox="0 0 58 58" fill="currentColor" xmlns="http://www.w3.org/2000/svg">
    <g clip-path="url(#clip0_487_30348)">
        <path fill-rule="evenodd" clip-rule="evenodd"
            d="M0.51839 8.37375C0.941592 7.79042 1.57909 7.39898 2.29077 7.28546C3.00245 7.17194 3.73009 7.34564 4.31377 7.76837L56.8763 45.8309C57.1765 46.0358 57.4326 46.2989 57.6294 46.6045C57.8262 46.9101 57.9597 47.2521 58.0221 47.6102C58.0844 47.9683 58.0743 48.3353 57.9923 48.6895C57.9104 49.0436 57.7582 49.3778 57.5449 49.6721C57.3315 49.9664 57.0613 50.2149 56.7502 50.403C56.4392 50.5911 56.0935 50.7149 55.7338 50.767C55.374 50.8192 55.0075 50.7987 54.6558 50.7067C54.3041 50.6148 53.9744 50.4532 53.6863 50.2316L45.5373 44.3301C41.1293 47.8138 35.496 50.75 29 50.75C21.8189 50.75 15.6963 47.154 11.1179 43.2173C6.51414 39.266 3.19002 34.7166 1.55877 32.2625C0.914919 31.2983 0.571292 30.1649 0.571292 29.0054C0.571292 27.846 0.914919 26.7126 1.55877 25.7484C2.83839 23.8162 5.16564 20.6009 8.33027 17.3927L1.12377 12.1691C0.540431 11.7459 0.148991 11.1084 0.0354754 10.3967C-0.0780405 9.68506 0.0956558 8.95742 0.51839 8.37375ZM12.7926 20.619C10.2849 23.094 8.03772 25.8198 6.08639 28.7535C6.03539 28.8257 6.00757 28.9116 6.00664 29C6.00664 29.0761 6.02839 29.1631 6.08639 29.2465C7.57989 31.4976 10.5886 35.5903 14.6631 39.0956C18.7594 42.6227 23.6604 45.3125 29 45.3125C33.3319 45.3125 37.3738 43.5435 40.9263 40.9951L32.8534 35.1444C31.6295 35.9132 30.2037 36.2986 28.7591 36.2511C27.3145 36.2037 25.9171 35.7255 24.7463 34.8781C23.5754 34.0306 22.6846 32.8525 22.1882 31.4951C21.6917 30.1377 21.6124 28.6629 21.9603 27.26L12.789 20.619H12.7926ZM29 12.6875C27.1295 12.6875 25.3134 13.0137 23.5661 13.5974C23.2249 13.7201 22.8626 13.7734 22.5005 13.754C22.1384 13.7346 21.7838 13.643 21.4577 13.4845C21.1315 13.326 20.8404 13.1039 20.6013 12.8312C20.3623 12.5586 20.1802 12.2408 20.0659 11.8967C19.9515 11.5526 19.9071 11.1891 19.9353 10.8276C19.9635 10.466 20.0638 10.1138 20.2302 9.79163C20.3966 9.46943 20.6257 9.18378 20.9042 8.95149C21.1826 8.71919 21.5047 8.54494 21.8515 8.439C24.1548 7.66045 26.5687 7.25895 29 7.25C36.1811 7.25 42.3038 10.846 46.8821 14.7828C51.4859 18.7376 54.81 23.2834 56.4413 25.7411C57.0854 26.7059 57.4292 27.8399 57.4292 29C57.4292 30.1601 57.0854 31.2941 56.4413 32.2589C56.0425 32.8606 55.5423 33.582 54.955 34.3867C54.7439 34.6748 54.4781 34.9184 54.1728 35.1036C53.8676 35.2889 53.5288 35.4123 53.1759 35.4666C52.8229 35.521 52.4627 35.5053 52.1159 35.4205C51.769 35.3356 51.4422 35.1833 51.1542 34.9722C50.8662 34.7611 50.6226 34.4953 50.4373 34.19C50.252 33.8847 50.1287 33.546 50.0743 33.193C50.0199 32.8401 50.0356 32.4799 50.1205 32.133C50.2053 31.7861 50.3576 31.4594 50.5688 31.1714C51.1053 30.4427 51.5548 29.7866 51.9136 29.2501C51.9648 29.1774 51.9923 29.0907 51.9923 29.0018C51.9923 28.9129 51.9648 28.8262 51.9136 28.7535C50.4201 26.5024 47.4114 22.4098 43.3369 18.9044C39.2406 15.3773 34.3396 12.6875 29 12.6875Z" />
    </g>
    <defs>
        <clipPath id="clip0_487_30348">
            <rect width="58" height="58" fill="white" />
        </clipPath>
    </defs>
</svg>