<svg width="1em" height="1em" viewBox="0 0 63 63" fill="currentColor" xmlns="http://www.w3.org/2000/svg">
    <path
        d="M56.8201 40.0673C56.9514 40.2912 57.0371 40.539 57.0723 40.7962C57.1075 41.0535 57.0914 41.3151 57.025 41.5662C56.9587 41.8172 56.8433 42.0526 56.6856 42.2588C56.5279 42.4651 56.3309 42.6381 56.1061 42.7679C55.8812 42.8977 55.6329 42.9818 55.3755 43.0153C55.118 43.0487 54.8564 43.0309 54.6059 42.9629C54.3553 42.8949 54.1207 42.778 53.9155 42.6189C53.7103 42.4598 53.5386 42.2617 53.4102 42.036L48.8865 34.2006C46.2212 35.9856 43.2903 37.3377 40.2024 38.2065L41.6329 46.319C41.7235 46.8333 41.6061 47.3624 41.3066 47.7901C41.0071 48.2178 40.55 48.5091 40.0358 48.5998C39.9221 48.6197 39.8069 48.6298 39.6915 48.6298C39.2291 48.6292 38.7817 48.4658 38.4276 48.1684C38.0736 47.871 37.8355 47.4585 37.755 47.0032L36.3478 39.0228C33.1256 39.4935 29.852 39.4924 26.6301 39.0194L25.2231 46.9995C25.1428 47.4549 24.9048 47.8676 24.5507 48.1652C24.1966 48.4627 23.7491 48.6262 23.2866 48.6269C23.1713 48.6268 23.0562 48.6168 22.9426 48.5969C22.4284 48.5062 21.9712 48.2149 21.6717 47.7872C21.3722 47.3595 21.2548 46.8303 21.3454 46.3161L22.7762 38.2004C19.692 37.3301 16.7647 35.9778 14.1027 34.1935L9.55238 42.0749C9.42487 42.3021 9.25352 42.5018 9.04825 42.6624C8.84299 42.8229 8.6079 42.9411 8.35661 43.0101C8.10532 43.079 7.84284 43.0975 7.58438 43.0642C7.32592 43.031 7.07664 42.9468 6.85097 42.8165C6.6253 42.6862 6.42775 42.5124 6.26976 42.3052C6.11178 42.0979 5.9965 41.8614 5.93062 41.6093C5.86474 41.3572 5.84957 41.0945 5.88599 40.8364C5.9224 40.5784 6.00967 40.3302 6.14275 40.1061L10.9408 31.7956C9.26732 30.3553 7.72846 28.7656 6.34332 27.0462C6.17858 26.8453 6.05522 26.6139 5.98035 26.3651C5.90548 26.1164 5.88058 25.8553 5.90708 25.5968C5.93358 25.3384 6.01096 25.0878 6.13476 24.8594C6.25856 24.6311 6.42633 24.4294 6.62841 24.2662C6.83048 24.103 7.06287 23.9813 7.31217 23.9083C7.56147 23.8353 7.82275 23.8123 8.08096 23.8408C8.33918 23.8692 8.58921 23.9484 8.81666 24.0739C9.04411 24.1994 9.24447 24.3687 9.4062 24.572C10.9436 26.4851 12.6981 28.213 14.6345 29.721C14.65 29.7318 14.664 29.7441 14.679 29.7554C19.484 33.4937 25.4124 35.4963 31.5 35.4375C37.5861 35.4962 43.513 33.4945 48.3173 29.7579C48.3304 29.7481 48.3424 29.738 48.3557 29.7284C50.2958 28.2186 52.0536 26.4882 53.5936 24.572C53.9231 24.1702 54.3981 23.915 54.915 23.862C55.4319 23.809 55.9487 23.9625 56.353 24.289C56.7572 24.6155 57.0159 25.0886 57.0727 25.6051C57.1296 26.1216 56.9799 26.6396 56.6564 27.0462C55.2686 28.7689 53.7264 30.3614 52.0491 31.8039L56.8201 40.0673Z" />
</svg>