<svg width="1em" height="1em" viewBox="0 0 71 71" fill="currentColor" xmlns="http://www.w3.org/2000/svg">
    <path
        d="M63.0125 49.8553C64.0775 47.7142 64.8985 45.4356 65.4421 43.0504C67.5565 34.9298 66.9198 27.8431 66.9198 27.8431L66.1964 32.5091C66.1964 32.5091 65.1536 23.8649 63.8801 20.6321C61.9276 15.6843 61.0556 15.7198 61.0534 15.7287C62.2559 18.7906 62.1494 20.5434 62.125 20.8052L62.0629 20.7009C61.7745 19.9843 60.2946 16.6672 57.1262 14.3176C51.381 8.60507 43.6063 5.40185 35.5045 5.4093C31.2272 5.40472 26.9962 6.29566 23.084 8.0248C19.1718 9.75394 15.6648 12.283 12.7889 15.4491C12.0789 14.4219 11.502 13.1749 11.4466 11.7971L11.431 11.8082L11.4244 11.7416C11.4244 11.7416 7.85442 14.504 8.24049 21.9656C7.57486 23.2414 6.99799 24.5682 6.51652 25.9416C5.68449 27.7543 4.85245 30.388 4.16464 34.2531C4.16464 34.2531 4.46195 33.3167 5.05214 32.0609C4.91014 33.1304 4.82361 34.2131 4.79477 35.3158C4.59508 37.1885 4.53517 39.4516 4.71045 42.1651C4.71045 42.1651 4.78145 41.2643 5.0122 39.902C6.86042 55.1137 19.8024 66.8953 35.5 66.8953C39.6269 66.8953 43.5696 66.0744 47.164 64.5989C55.329 61.6169 60.1659 55.9014 63.0125 49.8531V49.8553ZM35.5045 7.44389C40.9315 7.44389 45.9992 8.95264 50.3257 11.5708C45.2803 10.3993 42.7088 10.9939 42.7309 11.0205C42.7576 11.0538 50.237 12.3296 51.5616 14.149C51.5616 14.149 48.3888 14.149 45.2248 15.0586C45.0806 15.103 56.8555 16.5319 59.2629 28.2979C59.2629 28.2979 57.976 25.6066 56.3785 25.1473C57.4279 28.3423 57.155 34.3995 56.1566 37.4126C56.0279 37.7986 55.8948 35.7374 53.929 34.8499C54.5591 39.3695 53.889 46.5383 50.7517 48.513C50.5077 48.6683 52.7198 41.4351 51.1955 44.2308C42.1164 58.1557 31.3199 49.8664 26.9379 46.911C30.4568 47.7719 34.1888 47.1507 36.352 45.6685C38.5309 44.182 39.8222 43.0948 40.9826 43.3477C42.1408 43.6073 42.9129 42.4447 42.0121 41.413C41.1135 40.379 38.9236 38.9612 35.966 39.7334C33.8804 40.2792 31.2889 42.5867 27.3417 40.2481C23.9736 38.2512 23.998 36.6316 23.998 35.5998C23.998 34.7878 24.5683 33.6473 25.6266 33.319C26.9135 33.4521 27.943 33.7916 29.0368 34.3507C29.0492 33.9662 29.0492 33.5814 29.0368 33.1969C29.1211 33.0283 29.0679 32.5091 28.9303 31.8768C28.8528 31.2357 28.7115 30.6039 28.5088 29.9908C28.531 29.9842 28.5443 29.9731 28.5531 29.942C28.7218 29.1788 33.3168 26.5163 33.6563 26.2589C33.9935 26.0082 34.8766 25.4224 34.7767 23.6363C34.7435 23.0484 34.648 22.984 29.8245 23.0018C27.7899 23.0084 26.6628 21.0182 26.2967 20.2394C26.7915 17.5104 28.2137 15.5579 30.5567 14.2399C30.601 14.2177 30.59 14.1955 30.5389 14.1822C31.027 13.9005 24.9388 14.1689 22.1964 17.7411C21.4642 17.8454 20.4525 17.6346 19.3231 17.6346C17.9076 17.6346 16.7938 17.7899 15.7665 18.0495C15.6137 18.0755 15.4577 18.0755 15.305 18.0495C14.8865 17.7327 14.4899 17.3881 14.118 17.0178C16.803 14.0014 20.0969 11.5883 23.7825 9.93764C27.4681 8.28702 31.4617 7.43633 35.5 7.44167L35.5045 7.44389Z" />
</svg>