<svg width="1em" height="1em" viewBox="0 0 76 76" fill="none" xmlns="http://www.w3.org/2000/svg">
    <circle cx="38" cy="38" r="38" fill="black" />
    <path
        d="M59.17 34.2696C59.4519 35.7798 59.6055 37.3588 59.6055 39.0065C59.6055 51.8948 50.9796 61.0592 37.9515 61.0592C34.9887 61.0601 32.0548 60.4772 29.3174 59.3438C26.58 58.2104 24.0927 56.5487 21.9977 54.4538C19.9028 52.3588 18.2411 49.8715 17.1077 47.1341C15.9743 44.3967 15.3914 41.4628 15.3923 38.5C15.3914 35.5372 15.9743 32.6033 17.1077 29.8659C18.2411 27.1285 19.9028 24.6412 21.9977 22.5463C24.0927 20.4513 26.58 18.7896 29.3174 17.6562C32.0548 16.5228 34.9887 15.9399 37.9515 15.9408C44.0428 15.9408 49.1325 18.1821 53.0375 21.8213L46.6782 28.1806V28.1646C44.3109 25.9096 41.3065 24.7523 37.9515 24.7523C30.5082 24.7523 24.4582 31.0406 24.4582 38.4863C24.4582 45.9296 30.5082 52.2317 37.9515 52.2317C44.705 52.2317 49.3021 48.3702 50.2463 43.0673H37.9515V34.2696H59.1723H59.17Z"
        fill="white" />
</svg>