<svg width="1em" height="1em" viewBox="0 0 67 67" fill="currentColor" xmlns="http://www.w3.org/2000/svg">
    <path
        d="M59.8981 28.3466C60.2414 30.1863 60.4285 32.1097 60.4285 34.117C60.4285 49.8173 49.9206 60.9812 34.05 60.9812C30.4408 60.9823 26.8668 60.2722 23.5321 58.8915C20.1975 57.5109 17.1675 55.4866 14.6154 52.9346C12.0634 50.3825 10.0392 47.3526 8.65849 44.0179C7.27782 40.6832 6.56775 37.1092 6.56885 33.5C6.56775 29.8908 7.27782 26.3168 8.65849 22.9821C10.0392 19.6474 12.0634 16.6175 14.6154 14.0654C17.1675 11.5133 20.1975 9.48914 23.5321 8.10847C26.8668 6.7278 30.4408 6.01773 34.05 6.01883C41.4703 6.01883 47.6706 8.74908 52.4276 13.1822L44.6807 20.9291V20.9096C41.7969 18.1626 38.137 16.7528 34.05 16.7528C24.9827 16.7528 17.6127 24.4131 17.6127 33.4832C17.6127 42.5506 24.9827 50.2277 34.05 50.2277C42.2771 50.2277 47.8771 45.5237 49.0273 39.0638H34.05V28.3466H59.9009H59.8981Z" />
</svg>