<svg width="1em" height="1em" viewBox="0 0 64 64" fill="currentColor" xmlns="http://www.w3.org/2000/svg">
    <path
        d="M45.1378 45.2444C44.7437 44.9888 44.2645 44.8996 43.8048 44.9962C43.3451 45.0928 42.9423 45.3674 42.6844 45.76C40.1778 49.6 35.5733 54.3111 31.4667 55.8933C27.36 57.4756 24.1422 56.9067 22.8622 55.8933C22.3111 55.4133 20.8711 54.1156 22.0978 49.6889C22.9156 46.7378 28 32.8356 29.2089 29.4578L25.3333 29.9556C24.1067 33.2622 19.4844 45.6711 18.6489 48.7644C17.44 53.1911 18.0444 56.4089 20.5867 58.6489C22.363 59.8951 24.4983 60.5257 26.6667 60.4444C28.7707 60.4141 30.8506 59.9921 32.8 59.2C37.76 57.2622 42.9689 51.8756 45.7067 47.6978C45.8308 47.4994 45.9146 47.2786 45.9531 47.0478C45.9917 46.817 45.9844 46.5809 45.9315 46.353C45.8787 46.1251 45.7814 45.9098 45.6452 45.7196C45.509 45.5294 45.3365 45.3679 45.1378 45.2444Z" />
    <path
        d="M34.3111 19.5555C35.8934 19.5555 37.4401 19.0863 38.7557 18.2073C40.0713 17.3282 41.0967 16.0788 41.7022 14.617C42.3077 13.1552 42.4661 11.5467 42.1574 9.99481C41.8487 8.44296 41.0868 7.0175 39.968 5.89868C38.8492 4.77986 37.4237 4.01793 35.8719 3.70925C34.32 3.40057 32.7115 3.55899 31.2497 4.16449C29.7879 4.77 28.5384 5.79538 27.6594 7.11097C26.7803 8.42656 26.3111 9.97328 26.3111 11.5555C26.3111 13.6773 27.154 15.7121 28.6543 17.2124C30.1546 18.7127 32.1894 19.5555 34.3111 19.5555ZM34.3111 7.11109C35.1902 7.11109 36.0494 7.37175 36.7803 7.86011C37.5112 8.34847 38.0809 9.0426 38.4173 9.85472C38.7536 10.6668 38.8417 11.5605 38.6702 12.4226C38.4987 13.2847 38.0754 14.0767 37.4538 14.6982C36.8323 15.3198 36.0403 15.7431 35.1782 15.9146C34.3161 16.0861 33.4224 15.9981 32.6103 15.6617C31.7982 15.3253 31.1041 14.7556 30.6157 14.0247C30.1273 13.2938 29.8667 12.4346 29.8667 11.5555C29.8667 10.3768 30.3349 9.24633 31.1684 8.41283C32.0019 7.57934 33.1324 7.11109 34.3111 7.11109Z" />
    <path
        d="M20.9956 26.6667C21.1022 26.6667 32.1422 25.2089 34.7378 24.8889C35.8933 24.7112 36.7645 24.8889 37.0489 25.1556C37.3333 25.4223 37.4222 26.5778 36.9245 28.1423C35.84 31.4489 30.3645 47.6978 28.7645 52.5156C29.5465 52.3552 30.3137 52.1292 31.0578 51.84C31.7695 51.5457 32.4537 51.1887 33.1022 50.7734C35.2889 44.4445 39.3778 32.1778 40.3022 29.3689C41.2267 26.56 40.9956 24.4267 39.7689 22.9689C39.0691 22.2594 38.1932 21.7488 37.231 21.4895C36.2688 21.2302 35.2549 21.2316 34.2933 21.4934C31.7511 21.76 21.0133 23.1645 20.5511 23.2712C20.0796 23.3324 19.6518 23.5785 19.3617 23.9553C19.0717 24.332 18.9432 24.8085 19.0045 25.28C19.0657 25.7515 19.3118 26.1794 19.6886 26.4694C20.0653 26.7595 20.5418 26.888 21.0133 26.8267L20.9956 26.6667Z" />
</svg>