<svg width="1em" height="auto" viewBox="0 0 54 43" fill="currentColor" xmlns="http://www.w3.org/2000/svg">
    <path
        d="M16.2 21.3158C21.4228 21.3158 25.65 17.1442 25.65 11.9901C25.65 6.83604 21.4228 2.66447 16.2 2.66447C10.9772 2.66447 6.75 6.83604 6.75 11.9901C6.75 17.1442 10.9772 21.3158 16.2 21.3158ZM22.68 23.9803H21.9797C20.2247 24.8129 18.2756 25.3125 16.2 25.3125C14.1244 25.3125 12.1838 24.8129 10.4203 23.9803H9.72C4.35375 23.9803 0 28.2767 0 33.5724V35.9704C0 38.1769 1.81406 39.9671 4.05 39.9671H28.35C30.5859 39.9671 32.4 38.1769 32.4 35.9704V33.5724C32.4 28.2767 28.0462 23.9803 22.68 23.9803ZM40.5 21.3158C44.9719 21.3158 48.6 17.7354 48.6 13.3224C48.6 8.90933 44.9719 5.32895 40.5 5.32895C36.0281 5.32895 32.4 8.90933 32.4 13.3224C32.4 17.7354 36.0281 21.3158 40.5 21.3158ZM44.55 23.9803H44.2294C43.0566 24.3799 41.8162 24.6464 40.5 24.6464C39.1838 24.6464 37.9434 24.3799 36.7706 23.9803H36.45C34.7288 23.9803 33.1425 24.4715 31.7503 25.2625C33.8091 27.4524 35.1 30.3584 35.1 33.5724V36.7697C35.1 36.9529 35.0578 37.1278 35.0494 37.3026H49.95C52.1859 37.3026 54 35.5124 54 33.3059C54 28.1518 49.7728 23.9803 44.55 23.9803Z" />
</svg>