<svg width="1em" height="1em" viewBox="0 0 59 59" fill="none" stroke="currentColor" xmlns="http://www.w3.org/2000/svg">
    <path
        d="M24.5833 54.0833H34.4167H24.5833ZM12.2917 22.125C12.2917 17.5611 14.1047 13.1841 17.3319 9.95687C20.5591 6.72968 24.9361 4.91666 29.5 4.91666C34.0639 4.91666 38.4409 6.72968 41.6681 9.95687C44.8953 13.1841 46.7083 17.5611 46.7083 22.125C46.71 24.8957 46.0398 27.6255 44.7554 30.0805C43.4709 32.5356 41.6104 34.6426 39.3333 36.2211L38.0009 42.5292C37.8245 43.6919 37.2372 44.7529 36.3455 45.5196C35.4538 46.2864 34.3168 46.7081 33.1408 46.7083H25.8592C24.6832 46.7081 23.5462 46.2864 22.6545 45.5196C21.7628 44.7529 21.1755 43.6919 20.9991 42.5292L19.6667 36.2481C17.3888 34.664 15.5282 32.5521 14.244 30.0927C12.9597 27.6333 12.2898 24.8995 12.2917 22.125V22.125Z"
        stroke-width="2.80952" stroke-linecap="round" stroke-linejoin="round" />
    <path d="M19.6667 36.875H39.3333" stroke-width="2.80952" stroke-linecap="round" stroke-linejoin="round" />
</svg>