<svg width="1em" height="1em" viewBox="0 0 76 76" fill="currentColor" xmlns="http://www.w3.org/2000/svg">
    <path
        d="M38 41.1667C37.0359 41.1554 36.0915 41.4398 35.2939 41.9815C34.4963 42.5232 33.8838 43.2962 33.5388 44.1966C33.1939 45.0969 33.133 46.0813 33.3645 47.0173C33.5959 47.9533 34.1085 48.7959 34.8333 49.4317V53.8333C34.8333 54.6732 35.167 55.4787 35.7608 56.0725C36.3547 56.6664 37.1601 57 38 57C38.8398 57 39.6453 56.6664 40.2392 56.0725C40.833 55.4787 41.1667 54.6732 41.1667 53.8333V49.4317C41.8915 48.7959 42.4041 47.9533 42.6355 47.0173C42.867 46.0813 42.8061 45.0969 42.4612 44.1966C42.1162 43.2962 41.5037 42.5232 40.7061 41.9815C39.9085 41.4398 38.9641 41.1554 38 41.1667ZM53.8333 28.5V22.1667C53.8333 17.9674 52.1652 13.9401 49.1959 10.9708C46.2265 8.00149 42.1993 6.33334 38 6.33334C33.8007 6.33334 29.7735 8.00149 26.8041 10.9708C23.8348 13.9401 22.1667 17.9674 22.1667 22.1667V28.5C19.6471 28.5 17.2307 29.5009 15.4492 31.2825C13.6676 33.0641 12.6667 35.4805 12.6667 38V60.1667C12.6667 62.6862 13.6676 65.1026 15.4492 66.8842C17.2307 68.6658 19.6471 69.6667 22.1667 69.6667H53.8333C56.3529 69.6667 58.7692 68.6658 60.5508 66.8842C62.3324 65.1026 63.3333 62.6862 63.3333 60.1667V38C63.3333 35.4805 62.3324 33.0641 60.5508 31.2825C58.7692 29.5009 56.3529 28.5 53.8333 28.5ZM28.5 22.1667C28.5 19.6471 29.5009 17.2308 31.2825 15.4492C33.0641 13.6676 35.4804 12.6667 38 12.6667C40.5196 12.6667 42.9359 13.6676 44.7175 15.4492C46.4991 17.2308 47.5 19.6471 47.5 22.1667V28.5H28.5V22.1667ZM57 60.1667C57 61.0065 56.6664 61.812 56.0725 62.4059C55.4786 62.9997 54.6732 63.3333 53.8333 63.3333H22.1667C21.3268 63.3333 20.5214 62.9997 19.9275 62.4059C19.3336 61.812 19 61.0065 19 60.1667V38C19 37.1602 19.3336 36.3547 19.9275 35.7608C20.5214 35.167 21.3268 34.8333 22.1667 34.8333H53.8333C54.6732 34.8333 55.4786 35.167 56.0725 35.7608C56.6664 36.3547 57 37.1602 57 38V60.1667Z" />
</svg>