<svg width="1em" height="auto" viewBox="0 0 68 62" fill="none" xmlns="http://www.w3.org/2000/svg">
    <path
        d="M33.9999 12.9167C33.2485 12.9167 32.5278 13.1889 31.9964 13.6734C31.4651 14.1578 31.1666 14.8149 31.1666 15.5001C31.1666 16.1852 31.4651 16.8423 31.9964 17.3267C32.5278 17.8112 33.2485 18.0834 33.9999 18.0834H56.6666C57.418 18.0834 58.1387 17.8112 58.67 17.3267C59.2014 16.8423 59.4999 16.1852 59.4999 15.5001C59.4999 14.8149 59.2014 14.1578 58.67 13.6734C58.1387 13.1889 57.418 12.9167 56.6666 12.9167H33.9999Z"
        fill="#B31942" />
    <path
        d="M19.8334 31.0001C19.8334 30.3149 20.1319 29.6578 20.6633 29.1734C21.1947 28.6889 21.9153 28.4167 22.6668 28.4167H45.3334C46.0849 28.4167 46.8056 28.6889 47.3369 29.1734C47.8683 29.6578 48.1668 30.3149 48.1668 31.0001C48.1668 31.6852 47.8683 32.3423 47.3369 32.8267C46.8056 33.3112 46.0849 33.5834 45.3334 33.5834H22.6668C21.9153 33.5834 21.1947 33.3112 20.6633 32.8267C20.1319 32.3423 19.8334 31.6852 19.8334 31.0001Z"
        fill="#C4C4C4" />
    <path
        d="M8.5 46.5001C8.5 45.8149 8.79851 45.1578 9.32986 44.6734C9.86122 44.1889 10.5819 43.9167 11.3333 43.9167H34C34.7514 43.9167 35.4721 44.1889 36.0035 44.6734C36.5348 45.1578 36.8333 45.8149 36.8333 46.5001C36.8333 47.1852 36.5348 47.8423 36.0035 48.3267C35.4721 48.8112 34.7514 49.0834 34 49.0834H11.3333C10.5819 49.0834 9.86122 48.8112 9.32986 48.3267C8.79851 47.8423 8.5 47.1852 8.5 46.5001Z"
        fill="#004DAC" />
</svg>