<svg width="1em" height="auto" viewBox="0 0 66 70" fill="currentColor" xmlns="http://www.w3.org/2000/svg">
    <path
        d="M25.7675 16.0708C25.2708 17.9604 25.021 19.9134 25.025 21.875C25.025 33.775 34.155 43.4583 45.375 43.4583C47.245 43.4583 49.0875 43.1958 50.8475 42.6708C49.4029 46.4354 46.9338 49.6583 43.7551 51.9284C40.5764 54.1985 36.8322 55.4129 33 55.4167C22.385 55.4167 13.75 46.2583 13.75 35C13.75 26.4542 18.7275 19.1042 25.7675 16.0708ZM33 8.75C28.1049 8.75 23.3198 10.2895 19.2496 13.1739C15.1795 16.0583 12.0073 20.158 10.134 24.9546C8.26072 29.7511 7.77059 35.0291 8.72558 40.1211C9.68056 45.2131 12.0378 49.8904 15.4991 53.5616C18.9605 57.2327 23.3705 59.7328 28.1715 60.7456C32.9726 61.7585 37.949 61.2386 42.4714 59.2518C46.9939 57.265 50.8593 53.9005 53.5789 49.5837C56.2985 45.2669 57.75 40.1918 57.75 35C57.75 33.6583 57.64 32.3167 57.475 31.0333C56.1009 33.0769 54.2853 34.7418 52.1802 35.8886C50.0751 37.0354 47.7416 37.6308 45.375 37.625C42.2268 37.6251 39.16 36.5646 36.6168 34.5965C34.0736 32.6284 32.1856 29.8544 31.225 26.6747C30.2644 23.4949 30.2809 20.0738 31.2721 16.9046C32.2633 13.7354 34.178 10.9821 36.74 9.04167C35.53 8.86667 34.265 8.75 33 8.75Z" />
</svg>