<svg width="1em" height="1em" viewBox="0 0 62 62" fill="currentColor" xmlns="http://www.w3.org/2000/svg">
    <path
        d="M42.0288 0.455548C38.0275 0.455548 34.2979 2.10324 31.2242 5.22416C27.7331 8.77155 26.1354 13.1331 26.6028 17.7951C26.9533 21.2552 28.5081 24.7445 31 27.8654L13.7115 45.4327L10.5805 42.2512C9.05438 40.6932 7.78815 41.9847 6.25961 43.5403L4.76923 45.1298C3.2383 46.6782 1.97446 47.8921 3.50299 49.4453L6.62923 52.6292L4.17307 55.125C3.80933 55.4921 3.52065 55.9287 3.32366 56.4096C3.12667 56.8906 3.02525 57.4064 3.02525 57.9273C3.02525 58.4482 3.12667 58.964 3.32366 59.445C3.52065 59.9259 3.80933 60.3625 4.17307 60.7296C5.69923 62.2779 8.15776 62.2779 9.68869 60.7296L36.8137 33.1671C39.7515 35.0377 42.9422 36.0433 46.0517 36.0433C50.0507 36.0433 53.7874 34.3956 56.8588 31.2722C60.3522 27.7273 61.9475 23.3657 61.4778 18.7037C61.0581 14.5094 58.8666 10.2884 55.3684 6.73859C51.4052 2.70659 46.6717 0.453125 42.0288 0.453125V0.455548ZM42.1791 5.45193C45.5008 5.45193 48.9514 7.17959 51.9393 10.223C54.5958 12.9126 56.2531 16.0432 56.5607 19.0817C56.8778 22.2414 55.7833 25.2509 53.3558 27.7152C51.181 29.9202 48.6462 31.0445 45.9038 31.0445C42.5797 31.0445 39.1363 29.3144 36.1412 26.2759C33.4872 23.579 31.8298 20.4556 31.5222 17.4171C31.2075 14.2574 32.2972 11.2504 34.7272 8.78366C36.9019 6.57866 39.4368 5.45193 42.1767 5.45193H42.1791Z" />
</svg>