<svg width="1em" height="1em" viewBox="0 0 68 68" fill="currentColor" xmlns="http://www.w3.org/2000/svg">
    <path
        d="M8.40468 26.8281C8.04633 26.8314 7.6935 26.7397 7.38203 26.5625C7.15357 26.4341 6.95301 26.2614 6.7921 26.0545C6.63118 25.8477 6.51314 25.6108 6.44487 25.3578C6.3766 25.1047 6.35949 24.8406 6.39452 24.5809C6.42955 24.3212 6.51603 24.0711 6.6489 23.8452C9.20953 19.5712 17.0003 9.5957 34.0003 9.5957C41.3674 9.5957 47.8287 11.5308 53.1957 15.3452C57.613 18.4755 60.0887 22.019 61.268 23.7256C61.4176 23.9407 61.5227 24.1836 61.577 24.4399C61.6313 24.6963 61.6337 24.9609 61.5842 25.2182C61.5347 25.4754 61.4342 25.7202 61.2887 25.9381C61.1432 26.156 60.9555 26.3425 60.7368 26.4868C60.2898 26.7823 59.7453 26.8921 59.2186 26.7929C58.692 26.6938 58.2248 26.3934 57.9159 25.9555C55.7816 22.8862 49.2737 13.5469 34.0003 13.5469C19.0921 13.5469 12.3519 22.1412 10.1565 25.8267C9.98008 26.1345 9.72471 26.3896 9.41674 26.5656C9.10878 26.7417 8.75939 26.8323 8.40468 26.8281Z" />
    <path
        d="M42.5654 65.875C42.3959 65.877 42.2268 65.8578 42.062 65.8179C29.7304 62.7632 25.1258 50.4355 24.9385 49.9229L24.9093 49.81C24.8084 49.4541 22.3341 41.0005 26.1325 36.0493C27.8737 33.7915 30.522 32.6334 34.0189 32.6334C37.2702 32.6334 39.6156 33.6441 41.228 35.7359C42.5561 37.4438 43.0874 39.5502 43.6013 41.5796C44.6811 45.8057 45.4607 48.025 49.9484 48.2534C51.9194 48.353 53.2143 47.2002 53.9488 46.2187C55.9343 43.5426 56.2796 39.1797 54.7828 35.3281C52.8597 30.357 46.0345 20.9844 34.0003 20.9844C28.8631 20.9844 24.143 22.6352 20.3578 25.7377C17.2248 28.3077 14.7425 31.9361 13.5472 35.6655C11.3306 42.6089 14.2378 53.5234 14.2657 53.623C14.3336 53.8771 14.3499 54.1421 14.3138 54.4025C14.2776 54.663 14.1896 54.9135 14.0551 55.1394C13.9205 55.3653 13.7421 55.562 13.5303 55.7178C13.3186 55.8737 13.0777 55.9856 12.822 56.0469C12.3055 56.1842 11.7557 56.1138 11.2904 55.8506C10.8252 55.5875 10.4815 55.1525 10.3331 54.639C10.2003 54.141 7.09517 42.5 9.65579 34.4755C12.4449 25.7802 21.0524 17.0146 34.0043 17.0146C39.9902 17.0146 45.6453 19.0493 50.3655 22.8916C54.0205 25.8798 57.0061 29.8934 58.568 33.9057C60.5535 39.0283 60.0209 44.7777 57.2146 48.5337C55.3446 51.0385 52.6817 52.348 49.732 52.2059C42.0474 51.8208 40.6662 46.4565 39.6595 42.5438C38.6235 38.5302 37.9608 36.5952 34.0043 36.5952C31.8315 36.5952 30.3055 37.1928 29.3559 38.4306C28.0609 40.124 27.96 42.7709 28.1034 44.6914C28.1976 46.0294 28.4245 47.3547 28.7808 48.6479C29.0969 49.4448 33.2127 59.5385 43.0701 61.9809C43.3249 62.0413 43.5651 62.1517 43.7769 62.3057C43.9886 62.4597 44.1677 62.6542 44.3036 62.878C44.4395 63.1018 44.5296 63.3503 44.5687 63.6092C44.6077 63.8682 44.5949 64.1322 44.531 64.3861C44.4107 64.8148 44.1535 65.1923 43.7986 65.4612C43.4437 65.73 43.0106 65.8753 42.5654 65.875Z" />
    <path
        d="M26.7367 64.9639C26.4603 64.9645 26.1866 64.9094 25.932 64.8019C25.6773 64.6944 25.4469 64.5368 25.2545 64.3383C20.3192 59.1587 17.5275 53.3667 16.477 46.1244V46.0859C15.8873 41.2914 16.7506 34.5034 20.9806 29.8363C24.1031 26.3925 28.4925 24.642 34.0042 24.642C40.5227 24.642 45.6452 27.6728 48.8394 33.393C51.157 37.5487 51.6165 41.6898 51.6284 41.8598C51.6527 42.1219 51.6251 42.3863 51.5471 42.6377C51.4691 42.8891 51.3423 43.1227 51.1739 43.325C51.0055 43.5273 50.7988 43.6944 50.5657 43.8168C50.3326 43.9391 50.0777 44.0143 49.8156 44.038C49.2866 44.0954 48.7562 43.9424 48.339 43.6122C47.9218 43.282 47.6512 42.8009 47.5856 42.2729C47.2358 39.7882 46.4317 37.389 45.2136 35.1953C42.738 30.8271 38.9714 28.6065 33.9896 28.6065C29.6865 28.6065 26.3197 29.9014 24.0034 32.458C20.6645 36.1436 20.0191 41.8213 20.4773 45.5773C21.3977 51.9815 23.8587 57.0761 28.2043 61.629C28.3857 61.8176 28.5273 62.0409 28.6206 62.2854C28.714 62.5299 28.7573 62.7906 28.7479 63.0522C28.7385 63.3137 28.6765 63.5707 28.5658 63.8079C28.4551 64.045 28.2978 64.2575 28.1034 64.4326C27.7289 64.7721 27.2422 64.9613 26.7367 64.9639Z" />
    <path
        d="M49.4727 59.2583C45.1563 59.2583 41.4867 58.063 38.5502 55.687C32.6507 50.9336 31.9893 43.192 31.9601 42.8652C31.9185 42.3289 32.0917 41.7981 32.4415 41.3895C32.7913 40.9809 33.2891 40.728 33.8254 40.6864C34.3617 40.6449 34.8925 40.8181 35.3012 41.1679C35.7098 41.5177 35.9627 42.0155 36.0042 42.5518C36.0188 42.666 36.6085 48.9985 41.156 52.6456C43.8468 54.7945 47.4433 55.6471 51.8753 55.1491C52.405 55.0848 52.9386 55.2329 53.3594 55.5609C53.7803 55.8889 54.0541 56.3702 54.1212 56.8995C54.1502 57.161 54.1268 57.4257 54.0524 57.6781C53.9781 57.9304 53.8542 58.1655 53.688 58.3695C53.5219 58.5734 53.3168 58.7423 53.0847 58.8662C52.8526 58.99 52.5981 59.0665 52.3362 59.091C51.3857 59.2019 50.4296 59.2577 49.4727 59.2583Z" />
    <path
        d="M52.8835 6.47992C51.1995 5.38422 45.2282 2.125 34.0003 2.125C22.2145 2.125 16.2286 5.72555 14.9045 6.64062C14.817 6.6943 14.7352 6.75659 14.6601 6.82656C14.6522 6.83422 14.6419 6.83892 14.6309 6.83984C14.4194 7.02446 14.2498 7.25203 14.1332 7.50738C14.0166 7.76273 13.9558 8.04 13.9549 8.3207C13.9585 8.58383 14.014 8.84365 14.1182 9.08528C14.2225 9.32691 14.3733 9.5456 14.5622 9.72882C14.7511 9.91204 14.9743 10.0562 15.219 10.153C15.4637 10.2498 15.7251 10.2974 15.9882 10.293C16.4099 10.2927 16.8215 10.1634 17.1676 9.92242C17.2247 9.87992 22.3765 6.09477 34.0042 6.09477C45.632 6.09477 50.8117 9.86664 50.8674 9.89453C51.221 10.1567 51.6504 10.2966 52.0906 10.293C52.354 10.297 52.6155 10.249 52.8603 10.1517C53.105 10.0544 53.3281 9.90973 53.5168 9.72599C53.7055 9.54225 53.856 9.32305 53.9597 9.08098C54.0635 8.83891 54.1184 8.57874 54.1214 8.31539C54.1215 7.92092 54.0037 7.53542 53.7831 7.20837C53.5626 6.88132 53.2493 6.62765 52.8835 6.47992Z" />
</svg>