<svg width="1em" height="1em" viewBox="0 0 73 73" fill="currentColor" xmlns="http://www.w3.org/2000/svg">
    <path
        d="M39.1648 39.1648L33.8352 33.8352L23.668 49.332L39.1648 39.1648ZM36.5 1.14062C16.9668 1.14062 1.14062 16.9668 1.14062 36.5C1.14062 56.0332 16.9668 71.8594 36.5 71.8594C56.0332 71.8594 71.8594 56.0332 71.8594 36.5C71.8594 16.9668 56.0332 1.14062 36.5 1.14062ZM58.7208 26.0619L60.8281 25.1879C60.9666 25.1306 61.1149 25.1012 61.2648 25.1014C61.4146 25.1015 61.5629 25.1311 61.7013 25.1886C61.8396 25.2461 61.9653 25.3302 62.0711 25.4363C62.177 25.5423 62.2609 25.6682 62.318 25.8066C62.3755 25.9451 62.4052 26.0935 62.4052 26.2434C62.4053 26.3933 62.3758 26.5418 62.3185 26.6803C62.2612 26.8188 62.1771 26.9447 62.0711 27.0507C61.9651 27.1566 61.8392 27.2407 61.7007 27.298L59.5977 28.1692C59.3182 28.2848 59.0043 28.2847 58.7249 28.169C58.4455 28.0532 58.2235 27.8312 58.1077 27.5518C57.9918 27.2729 57.9913 26.9594 58.1062 26.6801C58.2211 26.4008 58.4422 26.1784 58.7208 26.0619ZM44.8308 13.4023L45.7034 11.295C45.82 11.0164 46.0423 10.7954 46.3216 10.6804C46.6009 10.5655 46.9144 10.5661 47.1934 10.682C47.4728 10.7977 47.6948 11.0197 47.8105 11.2991C47.9263 11.5785 47.9264 11.8924 47.8107 12.1719L46.9367 14.2792C46.821 14.5586 46.599 14.7806 46.3196 14.8964C46.0402 15.0121 45.7262 15.0122 45.4468 14.8966C45.308 14.8391 45.182 14.7549 45.0759 14.6486C44.9698 14.5424 44.8857 14.4162 44.8285 14.2774C44.7713 14.1385 44.742 13.9898 44.7424 13.8396C44.7428 13.6895 44.7729 13.5409 44.8308 13.4023ZM36.5 8.55469C36.8025 8.55469 37.0926 8.67486 37.3065 8.88877C37.5205 9.10268 37.6406 9.3928 37.6406 9.69531V11.9766C37.6406 12.2791 37.5205 12.5692 37.3065 12.7831C37.0926 12.997 36.8025 13.1172 36.5 13.1172C36.1975 13.1172 35.9074 12.997 35.6935 12.7831C35.4795 12.5692 35.3594 12.2791 35.3594 11.9766V9.69531C35.3594 9.3928 35.4795 9.10268 35.6935 8.88877C35.9074 8.67486 36.1975 8.55469 36.5 8.55469ZM25.8066 10.682C25.9451 10.6245 26.0935 10.5948 26.2434 10.5948C26.3933 10.5947 26.5418 10.6242 26.6803 10.6815C26.8188 10.7388 26.9447 10.8229 27.0507 10.9289C27.1566 11.0349 27.2407 11.1608 27.298 11.2993L28.1692 13.4023C28.2299 13.5413 28.2623 13.691 28.2645 13.8426C28.2667 13.9943 28.2386 14.1448 28.182 14.2855C28.1253 14.4262 28.0411 14.5541 27.9344 14.6619C27.8277 14.7696 27.7005 14.855 27.5604 14.913C27.4203 14.971 27.27 15.0005 27.1183 14.9998C26.9667 14.999 26.8167 14.968 26.6771 14.9086C26.5376 14.8492 26.4113 14.7625 26.3057 14.6537C26.2 14.5449 26.1171 14.4161 26.0619 14.2749L25.1879 12.1676C25.0736 11.8885 25.0746 11.5755 25.1906 11.297C25.3065 11.0186 25.528 10.7975 25.8066 10.682ZM16.7415 16.7401C16.9554 16.5264 17.2454 16.4063 17.5478 16.4063C17.8502 16.4063 18.1402 16.5264 18.3541 16.7401L19.9609 18.3527C20.1734 18.5664 20.2926 18.8555 20.2926 19.1568C20.2926 19.4581 20.1734 19.7472 19.9609 19.9609C19.7471 20.1747 19.457 20.2948 19.1547 20.2948C18.8523 20.2948 18.5623 20.1747 18.3484 19.9609L16.7358 18.3484C16.5239 18.1341 16.4055 17.8447 16.4063 17.5434C16.4071 17.242 16.5271 16.9532 16.7401 16.7401H16.7415ZM8.55469 36.5C8.55469 36.1975 8.67486 35.9074 8.88877 35.6935C9.10268 35.4795 9.3928 35.3594 9.69531 35.3594H11.9766C12.2791 35.3594 12.5692 35.4795 12.7831 35.6935C12.997 35.9074 13.1172 36.1975 13.1172 36.5C13.1172 36.8025 12.997 37.0926 12.7831 37.3065C12.5692 37.5205 12.2791 37.6406 11.9766 37.6406H9.69531C9.3928 37.6406 9.10268 37.5205 8.88877 37.3065C8.67486 37.0926 8.55469 36.8025 8.55469 36.5ZM14.2792 46.9381L12.1719 47.8121C12.0334 47.8694 11.8851 47.8988 11.7352 47.8986C11.5854 47.8985 11.4371 47.8689 11.2987 47.8114C11.1604 47.7539 11.0347 47.6698 10.9289 47.5637C10.823 47.4577 10.7391 47.3318 10.682 47.1934C10.6245 47.0549 10.5948 46.9065 10.5948 46.7566C10.5947 46.6067 10.6242 46.4582 10.6815 46.3197C10.7388 46.1812 10.8229 46.0553 10.9289 45.9494C11.0349 45.8434 11.1608 45.7593 11.2993 45.702L13.4023 44.8308C13.6818 44.7152 13.9957 44.7153 14.2751 44.831C14.5545 44.9468 14.7765 45.1688 14.8923 45.4482C15.0082 45.7271 15.0087 46.0406 14.8938 46.3199C14.7789 46.5993 14.5578 46.8216 14.2792 46.9381ZM14.8966 27.5475C14.8397 27.6868 14.7558 27.8134 14.6498 27.9201C14.5438 28.0268 14.4177 28.1115 14.2788 28.1692C14.1399 28.227 13.991 28.2568 13.8406 28.2567C13.6901 28.2567 13.5412 28.227 13.4023 28.1692L11.295 27.2966C11.0164 27.18 10.7954 26.9577 10.6804 26.6784C10.5655 26.3991 10.5661 26.0856 10.682 25.8066C10.7977 25.5272 11.0197 25.3052 11.2991 25.1895C11.5785 25.0737 11.8924 25.0736 12.1719 25.1893L14.2792 26.0633C14.5583 26.179 14.78 26.4008 14.8957 26.6799C15.0115 26.9589 15.0118 27.2725 14.8966 27.5518V27.5475ZM28.1692 59.5977L27.2966 61.705C27.2393 61.8434 27.1553 61.9692 27.0494 62.0752C26.9434 62.1812 26.8177 62.2653 26.6793 62.3227C26.5408 62.3801 26.3925 62.4097 26.2426 62.4097C26.0928 62.4098 25.9444 62.3803 25.8059 62.323C25.6675 62.2657 25.5416 62.1817 25.4356 62.0758C25.3297 61.9699 25.2456 61.8441 25.1882 61.7057C25.1308 61.5673 25.1012 61.4189 25.1011 61.2691C25.1011 61.1192 25.1306 60.9708 25.1879 60.8324L26.0619 58.7251C26.1171 58.5839 26.2 58.4551 26.3057 58.3463C26.4113 58.2375 26.5376 58.1508 26.6771 58.0914C26.8167 58.032 26.9667 58.001 27.1183 58.0002C27.27 57.9995 27.4203 58.029 27.5604 58.087C27.7005 58.145 27.8277 58.2304 27.9344 58.3381C28.0411 58.4459 28.1253 58.5738 28.182 58.7145C28.2386 58.8552 28.2667 59.0057 28.2645 59.1574C28.2623 59.309 28.2299 59.4587 28.1692 59.5977ZM37.6406 63.3047C37.6406 63.6072 37.5205 63.8973 37.3065 64.1112C37.0926 64.3251 36.8025 64.4453 36.5 64.4453C36.1975 64.4453 35.9074 64.3251 35.6935 64.1112C35.4795 63.8973 35.3594 63.6072 35.3594 63.3047V61.0234C35.3594 60.7209 35.4795 60.4308 35.6935 60.2169C35.9074 60.003 36.1975 59.8828 36.5 59.8828C36.8025 59.8828 37.0926 60.003 37.3065 60.2169C37.5205 60.4308 37.6406 60.7209 37.6406 61.0234V63.3047ZM47.1934 62.318C47.0549 62.3755 46.9065 62.4052 46.7566 62.4052C46.6067 62.4053 46.4582 62.3758 46.3197 62.3185C46.1812 62.2612 46.0553 62.1771 45.9494 62.0711C45.8434 61.9651 45.7593 61.8392 45.702 61.7007L44.8308 59.5977C44.7152 59.3182 44.7153 59.0043 44.831 58.7249C44.9468 58.4455 45.1688 58.2235 45.4482 58.1077C45.7277 57.9921 46.0416 57.9921 46.321 58.1079C46.6004 58.2237 46.8224 58.4457 46.9381 58.7251L47.8121 60.8324C47.9264 61.1115 47.9254 61.4245 47.8094 61.703C47.6935 61.9814 47.472 62.2025 47.1934 62.318ZM56.2585 56.2599C56.0446 56.4736 55.7546 56.5937 55.4522 56.5937C55.1498 56.5937 54.8598 56.4736 54.6459 56.2599L53.0391 54.6473C52.8266 54.4336 52.7074 54.1445 52.7074 53.8432C52.7074 53.5419 52.8266 53.2528 53.0391 53.0391C53.2529 52.8253 53.543 52.7052 53.8453 52.7052C54.1477 52.7052 54.4377 52.8253 54.6516 53.0391L56.2642 54.6516C56.4761 54.8659 56.5945 55.1553 56.5937 55.4566C56.5929 55.758 56.4729 56.0468 56.2599 56.2599H56.2585ZM40.813 40.813L15.7321 57.2679L32.187 32.187L57.2679 15.7321L40.813 40.813ZM62.318 47.1934C62.2023 47.4728 61.9803 47.6948 61.7009 47.8105C61.4215 47.9263 61.1076 47.9264 60.8281 47.8107L58.7208 46.9367C58.4414 46.821 58.2194 46.599 58.1036 46.3196C57.9879 46.0402 57.9878 45.7262 58.1034 45.4468C58.1609 45.308 58.2451 45.182 58.3514 45.0759C58.4576 44.9698 58.5838 44.8857 58.7226 44.8285C58.8615 44.7713 59.0102 44.742 59.1604 44.7424C59.3105 44.7428 59.4591 44.7729 59.5977 44.8308L61.705 45.7034C61.9836 45.82 62.2046 46.0423 62.3196 46.3216C62.4345 46.6009 62.4339 46.9144 62.318 47.1934ZM63.3047 37.6406H61.0234C60.7209 37.6406 60.4308 37.5205 60.2169 37.3065C60.003 37.0926 59.8828 36.8025 59.8828 36.5C59.8828 36.1975 60.003 35.9074 60.2169 35.6935C60.4308 35.4795 60.7209 35.3594 61.0234 35.3594H63.3047C63.6072 35.3594 63.8973 35.4795 64.1112 35.6935C64.3251 35.9074 64.4453 36.1975 64.4453 36.5C64.4453 36.8025 64.3251 37.0926 64.1112 37.3065C63.8973 37.5205 63.6072 37.6406 63.3047 37.6406Z" />
</svg>