<svg width="1em" height="1em" viewBox="0 0 67 67" fill="currentColor" xmlns="http://www.w3.org/2000/svg">
    <path
        d="M59.5148 55.9097L42.5228 38.9176C45.1596 35.5087 46.5859 31.3408 46.5859 26.957C46.5859 21.7096 44.538 16.7893 40.8347 13.0794C37.1313 9.36953 32.1979 7.32812 26.957 7.32812C21.7161 7.32812 16.7827 9.37607 13.0794 13.0794C9.36953 16.7827 7.32812 21.7096 7.32812 26.957C7.32812 32.1979 9.37607 37.1313 13.0794 40.8347C16.7827 44.5445 21.7096 46.5859 26.957 46.5859C31.3408 46.5859 35.5021 45.1596 38.911 42.5293L55.9031 59.5148C55.953 59.5647 56.0121 59.6042 56.0772 59.6312C56.1423 59.6582 56.2121 59.6721 56.2826 59.6721C56.3531 59.6721 56.4229 59.6582 56.488 59.6312C56.5531 59.6042 56.6123 59.5647 56.6621 59.5148L59.5148 56.6687C59.5647 56.6188 59.6042 56.5597 59.6312 56.4946C59.6582 56.4294 59.6721 56.3596 59.6721 56.2892C59.6721 56.2187 59.6582 56.1489 59.6312 56.0838C59.6042 56.0187 59.5647 55.9595 59.5148 55.9097ZM37.3211 37.3211C34.5469 40.0888 30.8697 41.6133 26.957 41.6133C23.0443 41.6133 19.3672 40.0888 16.593 37.3211C13.8253 34.5469 12.3008 30.8697 12.3008 26.957C12.3008 23.0443 13.8253 19.3606 16.593 16.593C19.3672 13.8253 23.0443 12.3008 26.957 12.3008C30.8697 12.3008 34.5534 13.8188 37.3211 16.593C40.0888 19.3672 41.6133 23.0443 41.6133 26.957C41.6133 30.8697 40.0888 34.5534 37.3211 37.3211Z" />
</svg>