<svg width="1em" height="1em" viewBox="0 0 77 77" fill="currentColor" xmlns="http://www.w3.org/2000/svg">
    <path
        d="M33.6875 39.4013L27.4553 33.25L24.0625 36.5988L33.6875 46.0988L52.9375 27.0987L49.5447 23.75L33.6875 39.4013Z" />
    <path
        d="M38.5 71.25L23.639 63.4291C19.4024 61.2045 15.8595 57.8832 13.3906 53.8216C10.9217 49.76 9.61988 45.1115 9.62498 40.375V9.5C9.62626 8.24061 10.1337 7.03316 11.0359 6.14263C11.9382 5.25211 13.1615 4.75126 14.4375 4.75H62.5625C63.8384 4.75126 65.0618 5.25211 65.964 6.14263C66.8663 7.03316 67.3737 8.24061 67.375 9.5V40.375C67.3801 45.1115 66.0783 49.76 63.6094 53.8216C61.1405 57.8832 57.5976 61.2045 53.361 63.4291L38.5 71.25ZM14.4375 9.5V40.375C14.4335 44.2505 15.4989 48.054 17.5193 51.3771C19.5398 54.7002 22.4389 57.4175 25.9057 59.2372L38.5 65.8659L51.0943 59.2396C54.5614 57.4196 57.4608 54.702 59.4813 51.3784C61.5017 48.0549 62.5669 44.2509 62.5625 40.375V9.5H14.4375Z" />
</svg>