<svg width="1em" height="1em" viewBox="0 0 64 64" fill="currentColor" xmlns="http://www.w3.org/2000/svg">
    <path
        d="M36.8532 58.6667H27.1465C26.5383 58.6668 25.9484 58.459 25.4745 58.0777C25.0007 57.6965 24.6713 57.1648 24.5412 56.5707L23.4559 51.5467C22.008 50.9123 20.6352 50.119 19.3625 49.1813L14.4639 50.7413C13.884 50.9262 13.2584 50.9072 12.6908 50.6875C12.1233 50.4678 11.648 50.0605 11.3439 49.5333L6.47986 41.1307C6.17892 40.603 6.06595 39.9889 6.15944 39.3887C6.25293 38.7885 6.54735 38.2378 6.99453 37.8267L10.7945 34.36C10.6217 32.7896 10.6217 31.205 10.7945 29.6347L6.99453 26.176C6.54672 25.7647 6.2519 25.2135 6.15839 24.6128C6.06488 24.012 6.17823 23.3973 6.47986 22.8693L11.3332 14.4613C11.6373 13.9342 12.1126 13.5269 12.6802 13.3072C13.2477 13.0874 13.8734 13.0684 14.4532 13.2533L19.3519 14.8133C20.0025 14.3333 20.6799 13.8853 21.3785 13.48C22.0532 13.1013 22.7465 12.7573 23.4559 12.4507L24.5439 7.432C24.6734 6.83786 25.0021 6.30584 25.4755 5.92413C25.9488 5.54243 26.5384 5.33398 27.1465 5.33334H36.8532C37.4613 5.33398 38.0509 5.54243 38.5243 5.92413C38.9976 6.30584 39.3263 6.83786 39.4559 7.432L40.5545 12.4533C42.0015 13.0877 43.3735 13.8811 44.6452 14.8187L49.5465 13.2587C50.126 13.0744 50.751 13.0938 51.318 13.3135C51.885 13.5332 52.3598 13.9401 52.6639 14.4667L57.5172 22.8747C58.1359 23.96 57.9225 25.3333 57.0025 26.1787L53.2025 29.6453C53.3753 31.2157 53.3753 32.8003 53.2025 34.3707L57.0025 37.8373C57.9225 38.6853 58.1359 40.056 57.5172 41.1413L52.6639 49.5493C52.3597 50.0765 51.8844 50.4838 51.3169 50.7035C50.7493 50.9232 50.1237 50.9422 49.5439 50.7573L44.6452 49.1973C43.3736 50.1343 42.0015 50.9267 40.5545 51.56L39.4559 56.5707C39.3258 57.1643 38.9969 57.6957 38.5236 58.0769C38.0502 58.4581 37.4609 58.6662 36.8532 58.6667ZM20.3199 43.2773L22.5065 44.8773C22.9999 45.24 23.5119 45.5733 24.0452 45.8773C24.5465 46.168 25.0585 46.4293 25.5892 46.6667L28.0772 47.7573L29.2959 53.3333H34.7092L35.9279 47.7547L38.4159 46.664C39.5012 46.184 40.5332 45.5893 41.4905 44.888L43.6772 43.288L49.1225 45.0213L51.8292 40.3333L47.6079 36.4853L47.9065 33.7867C48.0399 32.6053 48.0399 31.4133 47.9065 30.2347L47.6079 27.536L51.8319 23.68L49.1225 18.9893L43.6799 20.7227L41.4905 19.1227C40.5327 18.4178 39.5019 17.818 38.4159 17.3333L35.9279 16.2427L34.7092 10.6667H29.2959L28.0692 16.2453L25.5892 17.3333C24.5017 17.8096 23.4705 18.4053 22.5145 19.1093L20.3252 20.7093L14.8852 18.976L12.1732 23.68L16.3945 27.5227L16.0959 30.224C15.9625 31.4053 15.9625 32.5973 16.0959 33.776L16.3945 36.4747L12.1732 40.3227L14.8799 45.0107L20.3199 43.2773ZM31.9892 42.6667C29.1602 42.6667 26.4471 41.5429 24.4467 39.5425C22.4463 37.5421 21.3225 34.829 21.3225 32C21.3225 29.171 22.4463 26.4579 24.4467 24.4575C26.4471 22.4571 29.1602 21.3333 31.9892 21.3333C34.8182 21.3333 37.5313 22.4571 39.5317 24.4575C41.5321 26.4579 42.6559 29.171 42.6559 32C42.6559 34.829 41.5321 37.5421 39.5317 39.5425C37.5313 41.5429 34.8182 42.6667 31.9892 42.6667ZM31.9892 26.6667C30.9448 26.6677 29.9237 26.9754 29.0526 27.5515C28.1815 28.1276 27.4987 28.9468 27.0889 29.9074C26.6792 30.8681 26.5604 31.9279 26.7475 32.9554C26.9346 33.9828 27.4192 34.9328 28.1413 35.6874C28.8634 36.4419 29.7911 36.9679 30.8094 37.2C31.8276 37.4321 32.8916 37.3601 33.8694 36.993C34.8471 36.6258 35.6955 35.9797 36.3094 35.1348C36.9232 34.2899 37.2755 33.2833 37.3225 32.24V33.3067V32C37.3225 30.5855 36.7606 29.229 35.7604 28.2288C34.7602 27.2286 33.4037 26.6667 31.9892 26.6667Z" />
</svg>