<svg width="1em" height="1em" viewBox="0 0 53 53" fill="currentColor" xmlns="http://www.w3.org/2000/svg">
    <g clip-path="url(#clip0_491_34639)">
        <path
            d="M36.4381 8.28199C36.4379 6.33898 37.1208 4.45776 38.3675 2.96745C39.6142 1.47714 41.3453 0.472645 43.2578 0.129714C45.1703 -0.213217 47.1425 0.127251 48.8293 1.09155C50.5161 2.05585 51.8102 3.58257 52.485 5.40461C53.1599 7.22664 53.1726 9.22797 52.5209 11.0584C51.8693 12.8889 50.5947 14.4319 48.9203 15.4176C47.2458 16.4032 45.2781 16.7687 43.3614 16.4501C41.4447 16.1315 39.7011 15.1491 38.4355 13.6747L16.1822 24.0097C16.6938 25.631 16.6938 27.3705 16.1822 28.9917L38.4355 39.3267C39.7733 37.771 41.6409 36.7672 43.6766 36.51C45.7122 36.2527 47.7708 36.7604 49.4535 37.9345C51.1362 39.1086 52.3231 40.8656 52.7842 42.8649C53.2453 44.8642 52.9477 46.9636 51.9492 48.756C50.9507 50.5485 49.3223 51.9064 47.3796 52.5667C45.4369 53.2269 43.3183 53.1425 41.4343 52.3297C39.5503 51.5169 38.0352 50.0336 37.1825 48.1674C36.3298 46.3011 36.2003 44.1848 36.819 42.2285L14.5657 31.8935C13.4641 33.1773 11.9957 34.093 10.3581 34.5173C8.72046 34.9416 6.99219 34.8542 5.40574 34.2668C3.8193 33.6795 2.45079 32.6204 1.4843 31.2319C0.517822 29.8435 -0.000267029 28.1924 -0.000267029 26.5007C-0.000267029 24.8091 0.517822 23.158 1.4843 21.7695C2.45079 20.3811 3.8193 19.322 5.40574 18.7346C6.99219 18.1473 8.72046 18.0599 10.3581 18.4842C11.9957 18.9085 13.4641 19.8242 14.5657 21.108L36.819 10.773C36.5657 9.96695 36.4373 9.12689 36.4381 8.28199Z" />
    </g>
    <defs>
        <clipPath id="clip0_491_34639">
            <rect width="53" height="53" fill="white" />
        </clipPath>
    </defs>
</svg>