<svg width="1em" height="1em" viewBox="0 0 78 78" fill="none" stroke="currentColor" xmlns="http://www.w3.org/2000/svg">
    <path
        d="M6.49997 48.6168V29.3801C6.49997 27.5146 7.95597 26.0001 9.74997 26.0001H21.4045C21.8346 25.9985 22.2599 25.9099 22.6548 25.7396C23.0497 25.5692 23.406 25.3206 23.7022 25.0088L33.4522 13.9978C35.4997 11.8658 39 13.3771 39 16.3898V61.6103C39 64.6458 35.4575 66.1441 33.423 63.9698L23.7055 53.0206C23.4084 52.6999 23.0485 52.4438 22.6481 52.2682C22.2478 52.0927 21.8156 52.0014 21.3785 52.0001H9.74997C7.95597 52.0001 6.49997 50.4856 6.49997 48.6168Z"
        stroke-width="6.5" stroke-linecap="round" stroke-linejoin="round" />
    <path d="M52 27.625C56.3323 33.4035 56.3323 44.5965 52 50.375" stroke-width="6.5" stroke-linecap="round"
        stroke-linejoin="round" />
    <path d="M61.75 16.2499C74.711 28.6259 74.789 49.4552 61.75 61.7499" stroke-width="6.5" stroke-linecap="round"
        stroke-linejoin="round" />
</svg>