<svg width="1em" height="1em" viewBox="0 0 78 78" fill="none" stroke="currentColor" xmlns="http://www.w3.org/2000/svg">
    <path d="M71.5 29.25L52 48.75M71.5 48.75L52 29.25L71.5 48.75Z" stroke-width="6.5" stroke-linecap="round" />
    <path
        d="M6.5 48.6168V29.38C6.5 27.5145 7.956 26 9.75 26H21.4045C21.8346 25.9985 22.2599 25.9099 22.6548 25.7395C23.0497 25.5692 23.406 25.3206 23.7023 25.0088L33.4523 13.9978C35.4998 11.8658 39 13.377 39 16.3898V61.6103C39 64.6458 35.4575 66.144 33.423 63.9698L23.7055 53.0205C23.4084 52.6999 23.0485 52.4438 22.6482 52.2682C22.2478 52.0926 21.8156 52.0013 21.3785 52H9.75C7.956 52 6.5 50.4855 6.5 48.6168Z"
        stroke-width="6.5" stroke-linecap="round" stroke-linejoin="round" />
</svg>