<svg width="1em" height="1em" viewBox="0 0 71 71" fill="currentColor" xmlns="http://www.w3.org/2000/svg">
    <path
        d="M35.5 50.484C31.577 50.484 27.8147 48.9256 25.0407 46.1516C22.2667 43.3776 20.7083 39.6153 20.7083 35.6923C20.7083 31.7693 22.2667 28.007 25.0407 25.233C27.8147 22.459 31.577 20.9006 35.5 20.9006C39.423 20.9006 43.1853 22.459 45.9593 25.233C48.7333 28.007 50.2917 31.7693 50.2917 35.6923C50.2917 39.6153 48.7333 43.3776 45.9593 46.1516C43.1853 48.9256 39.423 50.484 35.5 50.484ZM35.5 6.10898C36.2846 6.10898 37.0371 6.42066 37.5919 6.97545C38.1467 7.53025 38.4583 8.28271 38.4583 9.06731V14.984C38.4583 15.7686 38.1467 16.521 37.5919 17.0758C37.0371 17.6306 36.2846 17.9423 35.5 17.9423C34.7154 17.9423 33.9629 17.6306 33.4081 17.0758C32.8534 16.521 32.5417 15.7686 32.5417 14.984V9.06731C32.5417 8.28271 32.8534 7.53025 33.4081 6.97545C33.9629 6.42066 34.7154 6.10898 35.5 6.10898ZM35.5 53.4423C36.2846 53.4423 37.0371 53.754 37.5919 54.3088C38.1467 54.8636 38.4583 55.616 38.4583 56.4006V62.3173C38.4583 63.1019 38.1467 63.8544 37.5919 64.4092C37.0371 64.964 36.2846 65.2756 35.5 65.2756C34.7154 65.2756 33.9629 64.964 33.4081 64.4092C32.8534 63.8544 32.5417 63.1019 32.5417 62.3173V56.4006C32.5417 55.616 32.8534 54.8636 33.4081 54.3088C33.9629 53.754 34.7154 53.4423 35.5 53.4423ZM8.87501 32.734H14.7917C15.5763 32.734 16.3287 33.0457 16.8835 33.6005C17.4383 34.1552 17.75 34.9077 17.75 35.6923C17.75 36.4769 17.4383 37.2294 16.8835 37.7842C16.3287 38.339 15.5763 38.6506 14.7917 38.6506H8.87501C8.09041 38.6506 7.33794 38.339 6.78315 37.7842C6.22835 37.2294 5.91667 36.4769 5.91667 35.6923C5.91667 34.9077 6.22835 34.1552 6.78315 33.6005C7.33794 33.0457 8.09041 32.734 8.87501 32.734ZM56.2083 32.734H62.125C62.9096 32.734 63.6621 33.0457 64.2169 33.6005C64.7717 34.1552 65.0833 34.9077 65.0833 35.6923C65.0833 36.4769 64.7717 37.2294 64.2169 37.7842C63.6621 38.339 62.9096 38.6506 62.125 38.6506H56.2083C55.4237 38.6506 54.6713 38.339 54.1165 37.7842C53.5617 37.2294 53.25 36.4769 53.25 35.6923C53.25 34.9077 53.5617 34.1552 54.1165 33.6005C54.6713 33.0457 55.4237 32.734 56.2083 32.734ZM56.4184 14.7739C56.973 15.3287 57.2845 16.081 57.2845 16.8655C57.2845 17.6499 56.973 18.4023 56.4184 18.957L52.2353 23.1401C51.9624 23.4227 51.636 23.648 51.275 23.8031C50.9141 23.9581 50.5259 24.0397 50.1331 24.0431C49.7403 24.0465 49.3508 23.9717 48.9872 23.823C48.6236 23.6742 48.2933 23.4545 48.0155 23.1768C47.7378 22.899 47.5181 22.5687 47.3694 22.2051C47.2206 21.8416 47.1458 21.452 47.1492 21.0592C47.1526 20.6664 47.2342 20.2782 47.3892 19.9173C47.5443 19.5564 47.7697 19.2299 48.0522 18.957L52.2353 14.7739C52.7901 14.2193 53.5424 13.9078 54.3268 13.9078C55.1113 13.9078 55.8636 14.2193 56.4184 14.7739ZM22.9478 48.2445C23.5024 48.7993 23.814 49.5516 23.814 50.3361C23.814 51.1205 23.5024 51.8728 22.9478 52.4276L18.7647 56.6107C18.4918 56.8932 18.1654 57.1186 17.8045 57.2737C17.4435 57.4287 17.0553 57.5103 16.6625 57.5137C16.2697 57.5171 15.8802 57.4423 15.5166 57.2935C15.153 57.1448 14.8227 56.9251 14.545 56.6474C14.2672 56.3696 14.0475 56.0393 13.8988 55.6757C13.75 55.3121 13.6752 54.9226 13.6786 54.5298C13.682 54.137 13.7636 53.7488 13.9187 53.3879C14.0737 53.0269 14.2991 52.7005 14.5816 52.4276L18.7647 48.2445C19.3195 47.6899 20.0718 47.3784 20.8563 47.3784C21.6407 47.3784 22.393 47.6899 22.9478 48.2445ZM18.7647 14.7739L22.9478 18.957C23.4867 19.515 23.7849 20.2622 23.7781 21.0379C23.7714 21.8136 23.4603 22.5556 22.9118 23.1041C22.3633 23.6526 21.6213 23.9637 20.8456 23.9704C20.0699 23.9772 19.3227 23.679 18.7647 23.1401L14.5846 18.957C14.0457 18.3991 13.7475 17.6518 13.7543 16.8761C13.761 16.1005 14.0721 15.3585 14.6206 14.81C15.1691 14.2615 15.9111 13.9503 16.6868 13.9436C17.4624 13.9369 18.2097 14.2351 18.7677 14.7739H18.7647ZM52.2353 48.2445L56.4184 52.4276C56.9573 52.9855 57.2554 53.7328 57.2487 54.5085C57.242 55.2842 56.9308 56.0261 56.3823 56.5746C55.8338 57.1231 55.0919 57.4343 54.3162 57.441C53.5405 57.4478 52.7932 57.1496 52.2353 56.6107L48.0522 52.4276C47.7697 52.1547 47.5443 51.8283 47.3892 51.4673C47.2342 51.1064 47.1526 50.7182 47.1492 50.3254C47.1458 49.9326 47.2206 49.5431 47.3694 49.1795C47.5181 48.8159 47.7378 48.4856 48.0155 48.2078C48.2933 47.9301 48.6236 47.7104 48.9872 47.5617C49.3508 47.4129 49.7403 47.3381 50.1331 47.3415C50.5259 47.3449 50.9141 47.4265 51.275 47.5816C51.636 47.7366 51.9624 47.962 52.2353 48.2445Z" />
</svg>