<svg width="1em" height="1em" viewBox="0 0 49 49" fill="currentColor" xmlns="http://www.w3.org/2000/svg">
    <path
        d="M26.4823 22.4955C22.5177 21.1814 20.6023 20.3573 20.6023 18.2636C20.6023 15.9918 23.0745 15.1677 24.6336 15.1677C27.5514 15.1677 28.6205 17.3727 28.8655 18.1523L32.3845 16.66C32.0505 15.6577 30.5582 12.3836 26.7273 11.6709V8.90909H22.2727V11.7155C16.7491 12.9627 16.7268 18.0855 16.7268 18.3082C16.7268 23.3641 21.7382 24.7895 24.1882 25.6805C27.7073 26.9277 29.2664 28.0636 29.2664 30.2018C29.2664 32.7186 26.9277 33.7877 24.8564 33.7877C20.8027 33.7877 19.6445 29.6227 19.5109 29.1327L15.8136 30.625C17.2168 35.5027 20.8918 36.8168 22.2727 37.2177V40.0909H26.7273V37.3291C27.6182 37.1286 33.1864 36.015 33.1864 30.1573C33.1864 27.0614 31.8277 24.3441 26.4823 22.4955ZM4.45455 44.5455H0V31.1818H13.3636V35.6364H7.84C11.4259 41.0041 17.5509 44.5455 24.5 44.5455C29.8164 44.5455 34.915 42.4335 38.6743 38.6743C42.4335 34.915 44.5455 29.8164 44.5455 24.5H49C49 38.0418 38.0418 49 24.5 49C16.2145 49 8.88682 44.8795 4.45455 38.5986V44.5455ZM0 24.5C0 10.9582 10.9582 0 24.5 0C32.7855 0 40.1132 4.12045 44.5455 10.4014V4.45455H49V17.8182H35.6364V13.3636H41.16C37.5741 7.99591 31.4491 4.45455 24.5 4.45455C19.1836 4.45455 14.085 6.56647 10.3257 10.3257C6.56647 14.085 4.45455 19.1836 4.45455 24.5H0Z" />
</svg>