<svg width="1em" height="1em" viewBox="0 0 54 54" fill="currentColor" xmlns="http://www.w3.org/2000/svg">
    <path fill-rule="evenodd" clip-rule="evenodd"
        d="M36.8182 19.6363C36.8182 22.2403 35.7837 24.7376 33.9425 26.5788C32.1012 28.4201 29.6039 29.4545 27 29.4545C24.396 29.4545 21.8987 28.4201 20.0575 26.5788C18.2162 24.7376 17.1818 22.2403 17.1818 19.6363C17.1818 17.0324 18.2162 14.5351 20.0575 12.6938C21.8987 10.8526 24.396 9.81815 27 9.81815C29.6039 9.81815 32.1012 10.8526 33.9425 12.6938C35.7837 14.5351 36.8182 17.0324 36.8182 19.6363ZM31.9091 19.6363C31.9091 20.9383 31.3919 22.187 30.4712 23.1076C29.5506 24.0282 28.3019 24.5454 27 24.5454C25.698 24.5454 24.4494 24.0282 23.5287 23.1076C22.6081 22.187 22.0909 20.9383 22.0909 19.6363C22.0909 18.3344 22.6081 17.0857 23.5287 16.1651C24.4494 15.2445 25.698 14.7272 27 14.7272C28.3019 14.7272 29.5506 15.2445 30.4712 16.1651C31.3919 17.0857 31.9091 18.3344 31.9091 19.6363Z" />
    <path fill-rule="evenodd" clip-rule="evenodd"
        d="M27 0C12.0886 0 0 12.0886 0 27C0 41.9114 12.0886 54 27 54C41.9114 54 54 41.9114 54 27C54 12.0886 41.9114 0 27 0ZM4.90909 27C4.90909 32.13 6.65918 36.8525 9.59236 40.6031C11.6523 37.8979 14.3098 35.7057 17.3572 34.1975C20.4046 32.6893 23.7594 31.9061 27.1595 31.9091C30.5157 31.9059 33.8283 32.6688 36.845 34.1397C39.8617 35.6106 42.5028 37.7507 44.5672 40.3969C46.6939 37.6076 48.1259 34.3519 48.7446 30.8993C49.3632 27.4466 49.1509 23.8963 48.125 20.5421C47.0992 17.1878 45.2894 14.126 42.8453 11.6101C40.4012 9.09416 37.3932 7.19638 34.07 6.07379C30.7469 4.95121 27.2042 4.63608 23.7351 5.15448C20.266 5.67288 16.9702 7.00992 14.1204 9.05495C11.2707 11.1 8.94881 13.7942 7.34702 16.9148C5.74523 20.0353 4.90953 23.4924 4.90909 27ZM27 49.0909C21.9288 49.0985 17.0107 47.3539 13.0778 44.1524C14.6608 41.8862 16.7678 40.0359 19.2196 38.759C21.6713 37.482 24.3952 36.8162 27.1595 36.8182C29.8894 36.816 32.5804 37.4651 35.009 38.7117C37.4376 39.9582 39.5338 41.7662 41.1235 43.9855C37.1601 47.291 32.1609 49.0981 27 49.0909Z" />
</svg>