<svg width="1em" height="1em" viewBox="0 0 68 68" fill="none" stroke="currentColor" xmlns="http://www.w3.org/2000/svg">
    <path
        d="M5.66669 17C5.66669 15.4971 6.26371 14.0558 7.32642 12.9931C8.38912 11.9304 9.83046 11.3334 11.3334 11.3334H56.6667C58.1696 11.3334 59.6109 11.9304 60.6736 12.9931C61.7363 14.0558 62.3334 15.4971 62.3334 17V51C62.3334 52.5029 61.7363 53.9443 60.6736 55.007C59.6109 56.0697 58.1696 56.6667 56.6667 56.6667H11.3334C9.83046 56.6667 8.38912 56.0697 7.32642 55.007C6.26371 53.9443 5.66669 52.5029 5.66669 51V17Z"
        stroke-width="5.66667" stroke-linecap="round" stroke-linejoin="round" />
    <path d="M5.66669 22.6667H62.3334" stroke-width="5.66667" stroke-linecap="round" stroke-linejoin="round" />
    <path d="M5.66669 34H25.5C25.5 36.8333 27.2 42.5 34 42.5C40.8 42.5 42.5 36.8333 42.5 34H62.3334"
        stroke-width="5.66667" stroke-linecap="round" stroke-linejoin="round" />
</svg>