<svg width="1em" height="1em" viewBox="0 0 59 59" fill="currentColor" xmlns="http://www.w3.org/2000/svg">
    <path
        d="M55.0648 49.3203L31.0961 7.83594C30.7388 7.21943 30.1223 6.91406 29.5001 6.91406C28.8778 6.91406 28.2555 7.21943 27.9041 7.83594L3.93531 49.3203C3.22662 50.5533 4.11392 52.0859 5.53131 52.0859H53.4688C54.8862 52.0859 55.7735 50.5533 55.0648 49.3203ZM27.6563 23.9688C27.6563 23.7152 27.8637 23.5078 28.1172 23.5078H30.8829C31.1364 23.5078 31.3438 23.7152 31.3438 23.9688V34.5703C31.3438 34.8238 31.1364 35.0312 30.8829 35.0312H28.1172C27.8637 35.0312 27.6563 34.8238 27.6563 34.5703V23.9688ZM29.5001 44.25C28.7763 44.2352 28.0873 43.9374 27.5807 43.4203C27.0741 42.9033 26.7903 42.2082 26.7903 41.4844C26.7903 40.7605 27.0741 40.0655 27.5807 39.5484C28.0873 39.0314 28.7763 38.7335 29.5001 38.7188C30.2238 38.7335 30.9129 39.0314 31.4195 39.5484C31.9261 40.0655 32.2098 40.7605 32.2098 41.4844C32.2098 42.2082 31.9261 42.9033 31.4195 43.4203C30.9129 43.9374 30.2238 44.2352 29.5001 44.25Z" />
</svg>